<?xml version="1.0" encoding="utf-8" ?>
<svg baseProfile="full" height="300px" version="1.1" width="200px" xmlns="http://www.w3.org/2000/svg" xmlns:ev="http://www.w3.org/2001/xml-events" xmlns:xlink="http://www.w3.org/1999/xlink"><defs /><g><rect fill="rgb(255,213,153)" height="300px" stroke="rgb(0,0,0)" width="200px" x="0" y="0" /><path d="M 70 34 C 54 10 38 46 70 66 C 102 46 86 10 70 34" fill="rgb(155,0,0)" stroke="rgb(155,0,0)" stroke-width="1" /><path d="M 130 34 C 114 10 98 46 130 66 C 162 46 146 10 130 34" fill="rgb(155,0,0)" stroke="rgb(155,0,0)" stroke-width="1" /><path d="M 100 71.5 C 84 47.5 68 83.5 100 103.5 C 132 83.5 116 47.5 100 71.5" fill="rgb(155,0,0)" stroke="rgb(155,0,0)" stroke-width="1" /><path d="M 70 109 C 54 85 38 121 70 141 C 102 121 86 85 70 109" fill="rgb(155,0,0)" stroke="rgb(155,0,0)" stroke-width="1" /><path d="M 130 109 C 114 85 98 121 130 141 C 162 121 146 85 130 109" fill="rgb(155,0,0)" stroke="rgb(155,0,0)" stroke-width="1" /><path d="M 20 82 C 12 70 4 88 20 98 C 36 88 28 70 20 82" fill="rgb(155,0,0)" stroke="rgb(155,0,0)" stroke-width="1" /><path d="M 180 202 C 172 190 164 208 180 218 C 196 208 188 190 180 202" fill="rgb(155,0,0)" stroke="rgb(155,0,0)" stroke-width="1" transform="rotate(180,180,210)" /><path d="M 70 159 C 54 135 38 171 70 191 C 102 171 86 135 70 159" fill="rgb(155,0,0)" stroke="rgb(155,0,0)" stroke-width="1" transform="rotate(180,70,175)" /><path d="M 130 159 C 114 135 98 171 130 191 C 162 171 146 135 130 159" fill="rgb(155,0,0)" stroke="rgb(155,0,0)" stroke-width="1" transform="rotate(180,130,175)" /><path d="M 100 196.5 C 84 172.5 68 208.5 100 228.5 C 132 208.5 116 172.5 100 196.5" fill="rgb(155,0,0)" stroke="rgb(155,0,0)" stroke-width="1" transform="rotate(180,100,212.5)" /><path d="M 70 234 C 54 210 38 246 70 266 C 102 246 86 210 70 234" fill="rgb(155,0,0)" stroke="rgb(155,0,0)" stroke-width="1" transform="rotate(180,70,250)" /><path d="M 130 234 C 114 210 98 246 130 266 C 162 246 146 210 130 234" fill="rgb(155,0,0)" stroke="rgb(155,0,0)" stroke-width="1" transform="rotate(180,130,250)" /><path d="M 15 12 L 15 68" fill="none" stroke="rgb(155,0,0)" stroke-width="6" /><path d="M 15 12.5 L 15 67.5" fill="none" stroke="rgb(155,0,0)" stroke-width="6" /><path d="M 30 15 C 20 15 20 65 30 65 C 40 65 40 15 30 15" fill="none" stroke="rgb(155,0,0)" stroke-width="6" /><path d="M 15 12.5 L 15 67.5" fill="none" stroke="rgb(155,0,0)" stroke-width="5" /><path d="M 30 15 C 20 15 20 65 30 65 C 40 65 40 15 30 15" fill="none" stroke="rgb(155,0,0)" stroke-width="5" /><path d="M 165 232 L 165 288" fill="none" stroke="rgb(155,0,0)" stroke-width="6" transform="rotate(180,175,260)" /><path d="M 165 232.5 L 165 287.5" fill="none" stroke="rgb(155,0,0)" stroke-width="6" transform="rotate(180,175,260)" /><path d="M 180 235 C 170 235 170 285 180 285 C 190 285 190 235 180 235" fill="none" stroke="rgb(155,0,0)" stroke-width="6" transform="rotate(180,175,260)" /><path d="M 165 232.5 L 165 287.5" fill="none" stroke="rgb(155,0,0)" stroke-width="5" transform="rotate(180,175,260)" /><path d="M 180 235 C 170 235 170 285 180 285 C 190 285 190 235 180 235" fill="none" stroke="rgb(155,0,0)" stroke-width="5" transform="rotate(180,175,260)" /></g></svg>