<?xml version="1.0" encoding="utf-8" ?>
<svg baseProfile="full" height="300px" version="1.1" width="200px" xmlns="http://www.w3.org/2000/svg" xmlns:ev="http://www.w3.org/2001/xml-events" xmlns:xlink="http://www.w3.org/1999/xlink"><defs /><g><rect fill="rgb(255,213,153)" height="300px" stroke="rgb(0,0,0)" width="200px" x="0" y="0" /><path d="M 45 25 L 45 275 L 155 275 L 155 25 L 45 25" fill="rgb(255,233,173)" stroke="rgb(0,0,55)" stroke-width="1" /><path d="M 65 32.5 C 57.5 35.0 55.0 40.0 65 50 C 75.0 40.0 72.5 35.0 65 32.5 M 82.5 50 C 80.0 42.5 75.0 40.0 65 50 C 75.0 60.0 80.0 57.5 82.5 50 M 47.5 50 C 50.0 42.5 55.0 40.0 65 50 C 55.0 60.0 50.0 57.5 47.5 50 M 64.5 50 C 64.5 65.0 52.5 62.5 65 62.5 C 77.5 62.5 65.5 65.0 65.5 50" fill="rgb(0,0,0)" stroke="rgb(0,0,0)" stroke-width="1" /><path d="M 75 26 L 90 45 L 130 45 L 145 26 L 75 26" fill="rgb(155,0,0)" stroke="rgb(0,0,0)" stroke-width="2" /><path d="M 125 274 L 110 255 L 70 255 L 55 274 L 125 274" fill="rgb(155,0,0)" stroke="rgb(0,0,0)" stroke-width="2" /><path d="M 80 25 L 90 40 L 100 40 L 97 25" fill="none" stroke="rgb(0,0,0)" stroke-width="2" /><path d="M 101 25 L 103 40 L 121 40 L 124 25" fill="none" stroke="rgb(0,0,0)" stroke-width="2" /><path d="M 128 25 L 125 40 L 130 40 L 140 25" fill="none" stroke="rgb(0,0,0)" stroke-width="2" /><path d="M 80 25 L 90 40 L 100 40 L 97 25" fill="none" stroke="rgb(0,0,0)" stroke-width="2" transform="rotate(180,100,150)" /><path d="M 101 25 L 103 40 L 121 40 L 124 25" fill="none" stroke="rgb(0,0,0)" stroke-width="2" transform="rotate(180,100,150)" /><path d="M 128 25 L 125 40 L 130 40 L 140 25" fill="none" stroke="rgb(0,0,0)" stroke-width="2" transform="rotate(180,100,150)" /><path d="M 50 105 L 150 115 L 150 160 C 140 120 60 180 50 140 L 50 105" fill="rgb(255,200,0)" stroke="rgb(255,255,255)" stroke-width="5" /><path d="M 50 105 L 150 115 L 150 160 C 140 120 60 180 50 140 L 50 105" fill="rgb(255,200,0)" stroke="rgb(255,255,255)" stroke-width="5" transform="rotate(180,100,150)" /><path d="M 85 70 L 125 90 L 125 145 L 85 125 L 85 70" fill="rgb(155,0,0)" stroke="rgb(0,0,0)" stroke-width="1" /><path d="M 85 70 L 125 90 L 125 145 L 85 125 L 85 70" fill="rgb(155,0,0)" stroke="rgb(0,0,0)" stroke-width="1" transform="rotate(180,100,150)" /><path d="M 98 140 L 102 140 L 102 160 L 98 160 L 98 140" fill="rgb(0,0,0)" stroke="rgb(255,255,255)" stroke-width="2" /><path d="M 85 70 L 50 100 L 50 125 L 85 125 L 85 70" fill="rgb(0,0,55)" stroke="rgb(0,0,0)" stroke-width="1" /><path d="M 85 70 L 50 100 L 50 125 L 85 125 L 85 70" fill="rgb(0,0,55)" stroke="rgb(0,0,0)" stroke-width="1" transform="rotate(180,100,150)" /><path d="M 110 82 L 122 75 Q 165 110 110 185 L 110 82" fill="rgb(0,0,55)" stroke="rgb(0,0,0)" stroke-width="1" /><path d="M 110 82 L 122 75 Q 165 110 110 185 L 110 82" fill="rgb(0,0,55)" stroke="rgb(0,0,0)" stroke-width="1" transform="rotate(180,100,150)" /><path d="M 154 32 L 154 56 L 137 56 L 154 32" fill="rgb(255,200,0)" stroke="rgb(0,0,0)" stroke-width="1" /><path d="M 46 268 L 46 244 L 63 244 L 46 268" fill="rgb(255,200,0)" stroke="rgb(0,0,0)" stroke-width="1" /><path d="M 153 38 L 153 52 L 143 52 L 153 38" fill="rgb(155,0,0)" stroke="rgb(0,0,0)" stroke-width="1" /><path d="M 47 262 L 47 248 L 57 248 L 47 262" fill="rgb(155,0,0)" stroke="rgb(0,0,0)" stroke-width="1" /><path d="M 154 56 L 142 56 L 142 230 L 154 240 L 154 56" fill="rgb(255,200,0)" stroke="rgb(0,0,0)" stroke-width="1" /><path d="M 46 244 L 58 244 L 58 80 L 46 70 L 46 244" fill="rgb(255,200,0)" stroke="rgb(0,0,0)" stroke-width="1" /><path d="M 154 56 L 146 56 L 146 225 L 154 232 L 154 56" fill="rgb(0,0,0)" stroke="rgb(0,0,0)" stroke-width="1" /><path d="M 46 244 L 54 244 L 54 85 L 46 78 L 46 244" fill="rgb(0,0,0)" stroke="rgb(0,0,0)" stroke-width="1" /><path d="M 154 76 L 146 86 L 146 93 L 154 83 L 154 76" fill="rgb(255,255,255)" stroke="rgb(255,200,0)" stroke-width="1.5" /><path d="M 154 96 L 146 106 L 146 113 L 154 103 L 154 96" fill="rgb(255,255,255)" stroke="rgb(255,200,0)" stroke-width="1.5" /><path d="M 154 116 L 146 126 L 146 133 L 154 123 L 154 116" fill="rgb(255,255,255)" stroke="rgb(255,200,0)" stroke-width="1.5" /><path d="M 154 136 L 146 146 L 146 153 L 154 143 L 154 136" fill="rgb(255,255,255)" stroke="rgb(255,200,0)" stroke-width="1.5" /><path d="M 154 76 L 146 86 L 146 93 L 154 83 L 154 76" fill="rgb(255,255,255)" stroke="rgb(255,200,0)" stroke-width="1.5" transform="rotate(180,100,150)" /><path d="M 154 96 L 146 106 L 146 113 L 154 103 L 154 96" fill="rgb(255,255,255)" stroke="rgb(255,200,0)" stroke-width="1.5" transform="rotate(180,100,150)" /><path d="M 154 116 L 146 126 L 146 133 L 154 123 L 154 116" fill="rgb(255,255,255)" stroke="rgb(255,200,0)" stroke-width="1.5" transform="rotate(180,100,150)" /><path d="M 154 136 L 146 146 L 146 153 L 154 143 L 154 136" fill="rgb(255,255,255)" stroke="rgb(255,200,0)" stroke-width="1.5" transform="rotate(180,100,150)" /><path d="M 110 45 C 105 70 110 80 95 80 L 80 75 Q 75 70 85 65 L 90 45" fill="rgb(255,200,0)" stroke="rgb(0,0,0)" stroke-width="1" /><path d="M 90 255 C 95 230 90 220 105 220 L 120 225 Q 125 230 115 235 L 110 255" fill="rgb(255,200,0)" stroke="rgb(0,0,0)" stroke-width="1" /><path d="M 130 45 C 128 80 130 77 106 71" fill="none" stroke="rgb(0,0,55)" stroke-width="1" /><path d="M 130 45 C 128 80 130 77 106 71" fill="none" stroke="rgb(0,0,55)" stroke-width="1" transform="rotate(180,100,150)" /><path d="M 120 55 C 132 53 128 70 120 63" fill="none" stroke="rgb(0,0,55)" stroke-width="1" /><path d="M 120 55 C 132 53 128 70 120 63" fill="none" stroke="rgb(0,0,55)" stroke-width="1" transform="rotate(180,100,150)" /><path d="M 110 50 Q 114 55 118 50 Q 114 45 110 50 " fill="none" stroke="rgb(0,0,55)" stroke-width="1" /><path d="M 110 50 Q 114 55 118 50 Q 114 45 110 50 " fill="none" stroke="rgb(0,0,55)" stroke-width="1" transform="rotate(180,100,150)" /><path d="M 113 50 Q 114 55 115 50 Q 114 45 113 50 " fill="rgb(0,0,0)" stroke="rgb(0,0,55)" stroke-width="1" /><path d="M 113 50 Q 114 55 115 50 Q 114 45 113 50 " fill="rgb(0,0,0)" stroke="rgb(0,0,55)" stroke-width="1" transform="rotate(180,100,150)" /><path d="M 122 50 Q 126 55 130 50 Q 126 45 122 50 " fill="none" stroke="rgb(0,0,55)" stroke-width="1" /><path d="M 122 50 Q 126 55 130 50 Q 126 45 122 50 " fill="none" stroke="rgb(0,0,55)" stroke-width="1" transform="rotate(180,100,150)" /><path d="M 125 50 Q 126 55 127 50 Q 126 45 125 50 " fill="rgb(0,0,0)" stroke="rgb(0,0,55)" stroke-width="1" /><path d="M 125 50 Q 126 55 127 50 Q 126 45 125 50 " fill="rgb(0,0,0)" stroke="rgb(0,0,55)" stroke-width="1" transform="rotate(180,100,150)" /><path d="M 113 67 L 127 67" fill="rgb(0,0,0)" stroke="rgb(0,0,55)" stroke-width="1" /><path d="M 113 67 L 127 67" fill="rgb(0,0,0)" stroke="rgb(0,0,55)" stroke-width="1" transform="rotate(180,100,150)" /><path d="M 120 69 L 124 69" fill="rgb(0,0,0)" stroke="rgb(0,0,55)" stroke-width="1" /><path d="M 120 69 L 124 69" fill="rgb(0,0,0)" stroke="rgb(0,0,55)" stroke-width="1" transform="rotate(180,100,150)" /><path d="M 20 76 C 14 78 12 82 20 90 C 28 82 26 78 20 76 M 34 90 C 32 84 28 82 20 90 C 28 98 32 96 34 90 M 6 90 C 8 84 12 82 20 90 C 12 98 8 96 6 90 M 19.6 90 C 19.6 102 10 100 20 100 C 30 100 20.4 102 20.4 90" fill="rgb(0,0,0)" stroke="rgb(0,0,0)" stroke-width="1" /><path d="M 180 196 C 174 198 172 202 180 210 C 188 202 186 198 180 196 M 194 210 C 192 204 188 202 180 210 C 188 218 192 216 194 210 M 166 210 C 168 204 172 202 180 210 C 172 218 168 216 166 210 M 179.6 210 C 179.6 222 170 220 180 220 C 190 220 180.4 222 180.4 210" fill="rgb(0,0,0)" stroke="rgb(0,0,0)" stroke-width="1" transform="rotate(180,180,210)" /><path d="M 135 232.5 C 127.5 235.0 125.0 240.0 135 250 C 145.0 240.0 142.5 235.0 135 232.5 M 152.5 250 C 150.0 242.5 145.0 240.0 135 250 C 145.0 260.0 150.0 257.5 152.5 250 M 117.5 250 C 120.0 242.5 125.0 240.0 135 250 C 125.0 260.0 120.0 257.5 117.5 250 M 134.5 250 C 134.5 265.0 122.5 262.5 135 262.5 C 147.5 262.5 135.5 265.0 135.5 250" fill="rgb(0,0,0)" stroke="rgb(0,0,0)" stroke-width="1" transform="rotate(180,135,250)" /><path d="M 22 15 L 38 15 M 30 15 L 30 55 C 30 70 10 70 10 55" fill="none" stroke="rgb(0,0,0)" stroke-width="6" /><path d="M 172 235 L 188 235 M 180 235 L 180 275 C 180 290 160 290 160 275" fill="none" stroke="rgb(0,0,0)" stroke-width="6" transform="rotate(180,175,260)" /></g></svg>