<?xml version="1.0" encoding="utf-8" ?>
<svg baseProfile="full" height="300px" version="1.1" width="200px" xmlns="http://www.w3.org/2000/svg" xmlns:ev="http://www.w3.org/2001/xml-events" xmlns:xlink="http://www.w3.org/1999/xlink"><defs /><g><rect fill="rgb(255,213,153)" height="300px" stroke="rgb(0,0,0)" width="200px" x="0" y="0" /><path d="M 45 25 L 45 275 L 155 275 L 155 25 L 45 25" fill="rgb(255,233,173)" stroke="rgb(0,0,55)" stroke-width="1" /><path d="M 65 35.0 C 61.25 42.5 57.5 47.5 57.5 47.5 C 57.5 47.5 61.25 52.5 65 60.0 C 68.75 52.5 72.5 47.5 72.5 47.5 C 72.5 47.5 68.75 42.5 65 35.0" fill="rgb(155,0,0)" stroke="rgb(155,0,0)" stroke-width="1" /><path d="M 65 26 L 80 45 L 120 45 L 135 26 L 65 26" fill="rgb(155,0,0)" stroke="rgb(0,0,0)" stroke-width="2" /><path d="M 65 26 L 80 45 L 120 45 L 135 26 L 65 26" fill="rgb(155,0,0)" stroke="rgb(0,0,0)" stroke-width="2" transform="rotate(180,100,150)" /><path d="M 70 27 L 80 42 L 90 42 L 87 27" fill="none" stroke="rgb(255,255,255)" stroke-width="2" /><path d="M 91 27 L 93 42 L 111 42 L 114 27" fill="none" stroke="rgb(255,255,255)" stroke-width="2" /><path d="M 118 27 L 115 42 L 120 42 L 130 27" fill="none" stroke="rgb(255,255,255)" stroke-width="2" /><path d="M 70 27 L 80 42 L 90 42 L 87 27" fill="none" stroke="rgb(255,255,255)" stroke-width="2" transform="rotate(180,100,150)" /><path d="M 91 27 L 93 42 L 111 42 L 114 27" fill="none" stroke="rgb(255,255,255)" stroke-width="2" transform="rotate(180,100,150)" /><path d="M 118 27 L 115 42 L 120 42 L 130 27" fill="none" stroke="rgb(255,255,255)" stroke-width="2" transform="rotate(180,100,150)" /><path d="M 55 90 L 65 90 L 65 180 L 55 180 L 55 90" fill="rgb(0,0,55)" stroke="rgb(0,0,0)" stroke-width="1" /><path d="M 55 90 L 65 90 L 65 180 L 55 180 L 55 90" fill="rgb(0,0,55)" stroke="rgb(0,0,0)" stroke-width="1" transform="rotate(180,100,150)" /><path d="M 86 111.5 L 146 141.5 L 114 188.5 L 54 158.5 L 86 111.5" fill="rgb(155,0,0)" stroke="rgb(0,0,0)" stroke-width="1" /><path d="M 86 129 L 126 159 L 114 171 L 74 141 L 86 129" fill="rgb(0,0,55)" stroke="rgb(0,0,0)" stroke-width="1" /><path d="M 82 133 L 122 163 L 118 167 L 78 137 L 82 133" fill="rgb(255,200,0)" stroke="rgb(0,0,0)" stroke-width="1" /><path d="M 154 32 L 142 42 L 142 230 L 154 240 L 154 32" fill="rgb(255,200,0)" stroke="rgb(0,0,0)" stroke-width="1" /><path d="M 154 32 L 142 42 L 142 230 L 154 240 L 154 32" fill="rgb(255,200,0)" stroke="rgb(0,0,0)" stroke-width="1" transform="rotate(180,100,150)" /><path d="M 154 42 L 146 47 L 146 225 L 154 232 L 154 42" fill="rgb(0,0,0)" stroke="rgb(0,0,0)" stroke-width="1" /><path d="M 154 42 L 146 47 L 146 225 L 154 232 L 154 42" fill="rgb(0,0,0)" stroke="rgb(0,0,0)" stroke-width="1" transform="rotate(180,100,150)" /><path d="M 154 55 C 140 57 127 47 120 45 C 127 47 140 77 154 75" fill="rgb(255,200,0)" stroke="rgb(0,0,0)" stroke-width="1" /><path d="M 154 55 C 140 57 127 47 120 45 C 127 47 140 77 154 75" fill="rgb(255,200,0)" stroke="rgb(0,0,0)" stroke-width="1" transform="rotate(180,100,150)" /><path d="M 130 74 L 142 80 L 142 150 L 135 160 L 100 150" fill="rgb(155,0,0)" stroke="rgb(0,0,0)" stroke-width="1" /><path d="M 130 74 L 142 80 L 142 150 L 135 160 L 100 150" fill="rgb(155,0,0)" stroke="rgb(0,0,0)" stroke-width="1" transform="rotate(180,100,150)" /><path d="M 112 80 L 130 74 L 125 120 Q 105 180 85 125" fill="rgb(0,0,55)" stroke="rgb(0,0,0)" stroke-width="1" /><path d="M 112 80 L 130 74 L 125 120 Q 105 180 85 125" fill="rgb(0,0,55)" stroke="rgb(0,0,0)" stroke-width="1" transform="rotate(180,100,150)" /><path d="M 100 45 C 105 70 100 80 115 80 L 130 75 Q 135 70 125 65 L 120 45" fill="rgb(255,200,0)" stroke="rgb(0,0,0)" stroke-width="1" /><path d="M 100 45 C 105 70 100 80 115 80 L 130 75 Q 135 70 125 65 L 120 45" fill="rgb(255,200,0)" stroke="rgb(0,0,0)" stroke-width="1" transform="rotate(180,100,150)" /><path d="M 81 65 L 75 68 C 75 65 69 65 69 70 Q 79 78 84 74" fill="rgb(255,200,0)" stroke="rgb(0,0,0)" stroke-width="1" /><path d="M 81 65 L 75 68 C 75 65 69 65 69 70 Q 79 78 84 74" fill="rgb(255,200,0)" stroke="rgb(0,0,0)" stroke-width="1" transform="rotate(180,100,150)" /><path d="M 65 140 L 60 90 L 80 76 Q 90 90 112 80 L 120 100" fill="rgb(255,200,0)" stroke="rgb(0,0,0)" stroke-width="1" /><path d="M 65 140 L 60 90 L 80 76 Q 90 90 112 80 L 120 100" fill="rgb(255,200,0)" stroke="rgb(0,0,0)" stroke-width="1" transform="rotate(180,100,150)" /><path d="M 80 45 C 82 80 80 77 104 71" fill="none" stroke="rgb(0,0,55)" stroke-width="1" /><path d="M 80 45 C 82 80 80 77 104 71" fill="none" stroke="rgb(0,0,55)" stroke-width="1" transform="rotate(180,100,150)" /><path d="M 90 55 C 78 53 82 70 90 63" fill="none" stroke="rgb(0,0,55)" stroke-width="1" /><path d="M 90 55 C 78 53 82 70 90 63" fill="none" stroke="rgb(0,0,55)" stroke-width="1" transform="rotate(180,100,150)" /><path d="M 100 50 Q 96 55 92 50 Q 96 45 100 50 " fill="none" stroke="rgb(0,0,55)" stroke-width="1" /><path d="M 100 50 Q 96 55 92 50 Q 96 45 100 50 " fill="none" stroke="rgb(0,0,55)" stroke-width="1" transform="rotate(180,100,150)" /><path d="M 97 50 Q 96 55 95 50 Q 96 45 97 50 " fill="rgb(0,0,0)" stroke="rgb(0,0,55)" stroke-width="1" /><path d="M 97 50 Q 96 55 95 50 Q 96 45 97 50 " fill="rgb(0,0,0)" stroke="rgb(0,0,55)" stroke-width="1" transform="rotate(180,100,150)" /><path d="M 88 50 Q 84 55 80 50 Q 84 45 88 50 " fill="none" stroke="rgb(0,0,55)" stroke-width="1" /><path d="M 88 50 Q 84 55 80 50 Q 84 45 88 50 " fill="none" stroke="rgb(0,0,55)" stroke-width="1" transform="rotate(180,100,150)" /><path d="M 85 50 Q 84 55 83 50 Q 84 45 85 50 " fill="rgb(0,0,0)" stroke="rgb(0,0,55)" stroke-width="1" /><path d="M 85 50 Q 84 55 83 50 Q 84 45 85 50 " fill="rgb(0,0,0)" stroke="rgb(0,0,55)" stroke-width="1" transform="rotate(180,100,150)" /><path d="M 97 67 L 83 67" fill="rgb(0,0,0)" stroke="rgb(0,0,55)" stroke-width="1" /><path d="M 97 67 L 83 67" fill="rgb(0,0,0)" stroke="rgb(0,0,55)" stroke-width="1" transform="rotate(180,100,150)" /><path d="M 90 69 L 86 69" fill="rgb(0,0,0)" stroke="rgb(0,0,55)" stroke-width="1" /><path d="M 90 69 L 86 69" fill="rgb(0,0,0)" stroke="rgb(0,0,55)" stroke-width="1" transform="rotate(180,100,150)" /><path d="M 20 78 C 17.0 84 14 88 14 88 C 14 88 17.0 92 20 98 C 23.0 92 26 88 26 88 C 26 88 23.0 84 20 78" fill="rgb(155,0,0)" stroke="rgb(155,0,0)" stroke-width="1" /><path d="M 180 198 C 177.0 204 174 208 174 208 C 174 208 177.0 212 180 218 C 183.0 212 186 208 186 208 C 186 208 183.0 204 180 198" fill="rgb(155,0,0)" stroke="rgb(155,0,0)" stroke-width="1" transform="rotate(180,180,210)" /><path d="M 135 235.0 C 131.25 242.5 127.5 247.5 127.5 247.5 C 127.5 247.5 131.25 252.5 135 260.0 C 138.75 252.5 142.5 247.5 142.5 247.5 C 142.5 247.5 138.75 242.5 135 235.0" fill="rgb(155,0,0)" stroke="rgb(155,0,0)" stroke-width="1" transform="rotate(180,135,250)" /><path d="M 22 15 L 38 15 M 30 15 L 30 55 C 30 70 10 70 10 55" fill="none" stroke="rgb(155,0,0)" stroke-width="6" /><path d="M 172 235 L 188 235 M 180 235 L 180 275 C 180 290 160 290 160 275" fill="none" stroke="rgb(155,0,0)" stroke-width="6" transform="rotate(180,175,260)" /></g></svg>