<?xml version="1.0" encoding="utf-8" ?>
<svg baseProfile="full" height="300px" version="1.1" width="200px" xmlns="http://www.w3.org/2000/svg" xmlns:ev="http://www.w3.org/2001/xml-events" xmlns:xlink="http://www.w3.org/1999/xlink"><defs /><g><rect fill="rgb(255,213,153)" height="300px" stroke="rgb(0,0,0)" width="200px" x="0" y="0" /><path d="M 45 25 L 45 275 L 155 275 L 155 25 L 45 25" fill="rgb(255,233,173)" stroke="rgb(0,0,55)" stroke-width="1" /><path d="M 65 40.0 C 55.0 25.0 45.0 47.5 65 60.0 C 85.0 47.5 75.0 25.0 65 40.0" fill="rgb(155,0,0)" stroke="rgb(155,0,0)" stroke-width="1" /><path d="M 70 26 L 85 45 L 125 45 L 140 26 L 70 26" fill="rgb(155,0,0)" stroke="rgb(0,0,0)" stroke-width="2" /><path d="M 70 26 L 85 45 L 125 45 L 140 26 L 70 26" fill="rgb(155,0,0)" stroke="rgb(0,0,0)" stroke-width="2" transform="rotate(180,100,150)" /><path d="M 75 27 L 85 42 L 95 42 L 92 27" fill="none" stroke="rgb(255,255,255)" stroke-width="2" /><path d="M 96 27 L 98 42 L 116 42 L 119 27" fill="none" stroke="rgb(255,255,255)" stroke-width="2" /><path d="M 123 27 L 120 42 L 125 42 L 135 27" fill="none" stroke="rgb(255,255,255)" stroke-width="2" /><path d="M 75 27 L 85 42 L 95 42 L 92 27" fill="none" stroke="rgb(255,255,255)" stroke-width="2" transform="rotate(180,100,150)" /><path d="M 96 27 L 98 42 L 116 42 L 119 27" fill="none" stroke="rgb(255,255,255)" stroke-width="2" transform="rotate(180,100,150)" /><path d="M 123 27 L 120 42 L 125 42 L 135 27" fill="none" stroke="rgb(255,255,255)" stroke-width="2" transform="rotate(180,100,150)" /><path d="M 85 45 Q 85 49 87 53 L 78 70 L 85 73 L 83 78 L 85 80 L 83 83 L 85 85 L 87 90 C 75 110 127 90 110 45" fill="none" stroke="rgb(0,0,55)" stroke-width="1" /><path d="M 85 45 Q 85 49 87 53 L 78 70 L 85 73 L 83 78 L 85 80 L 83 83 L 85 85 L 87 90 C 75 110 127 90 110 45" fill="none" stroke="rgb(0,0,55)" stroke-width="1" transform="rotate(180,100,150)" /><path d="M 90 50 L 100 55 L 90 60" fill="none" stroke="rgb(0,0,55)" stroke-width="1" /><path d="M 90 50 L 100 55 L 90 60" fill="none" stroke="rgb(0,0,55)" stroke-width="1" transform="rotate(180,100,150)" /><path d="M 92 51 Q 89 55 92 59 Q 95 55 92 51" fill="rgb(0,0,55)" stroke="rgb(0,0,55)" stroke-width="1" /><path d="M 92 51 Q 89 55 92 59 Q 95 55 92 51" fill="rgb(0,0,55)" stroke="rgb(0,0,55)" transform="rotate(180,100,150)" /><path d="M 84 79 L 93 81 L 84 81" fill="none" stroke="rgb(0,0,55)" stroke-width="2" /><path d="M 84 79 L 93 81 L 84 81" fill="none" stroke="rgb(0,0,55)" stroke-width="2" transform="rotate(180,100,150)" /><path d="M 87 75 C 89 72 93 80 100 77 Q 102 75 100 74" fill="none" stroke="rgb(0,0,55)" stroke-width="1" /><path d="M 87 75 C 89 72 93 80 100 77 Q 102 75 100 74" fill="none" stroke="rgb(0,0,55)" stroke-width="1" transform="rotate(180,100,150)" /><path d="M 45 120 L 48 105 C 52 90 68 94 73 88 C 68 105 54 100 50 108 L 45 120" fill="rgb(255,200,0)" stroke="rgb(0,0,0)" stroke-width="1" /><path d="M 45 120 L 48 105 C 52 90 68 94 73 88 C 68 105 54 100 50 108 L 45 120" fill="rgb(255,200,0)" stroke="rgb(0,0,0)" stroke-width="1" transform="rotate(180,100,150)" /><path d="M 154 36 L 146 46 L 146 150 L 154 150 L 154 36" fill="rgb(155,0,0)" stroke="rgb(0,0,0)" stroke-width="1" /><path d="M 154 36 L 146 46 L 146 150 L 154 150 L 154 36" fill="rgb(155,0,0)" stroke="rgb(0,0,0)" stroke-width="1" transform="rotate(180,100,150)" /><path d="M 154 43 L 150 49 L 150 150 L 154 150 L 154 43" fill="rgb(0,0,0)" stroke="rgb(0,0,0)" stroke-width="1" /><path d="M 154 43 L 150 49 L 150 150 L 154 150 L 154 43" fill="rgb(0,0,0)" stroke="rgb(0,0,0)" stroke-width="1" transform="rotate(180,100,150)" /><path d="M 146 55 Q 140 50 135 40 Q 120 60 135 80 Q 140 67 146 60" fill="rgb(255,200,0)" stroke="rgb(0,0,0)" stroke-width="1" transform="rotate(180,100,150)" /><path d="M 146 55 Q 140 50 135 40 Q 120 60 135 80 Q 140 67 146 60" fill="rgb(255,200,0)" stroke="rgb(0,0,0)" stroke-width="1" /><path d="M 87 107 Q 75 100 45 140 L 45 175 Q 100 155 155 160 L 155 120 L 128 107" fill="rgb(155,0,0)" stroke="rgb(155,0,0)" stroke-width="1" /><path d="M 87 107 Q 75 100 45 140 L 45 175 Q 100 155 155 160 L 155 120 L 128 107" fill="rgb(155,0,0)" stroke="rgb(155,0,0)" stroke-width="1" transform="rotate(180,100,150)" /><path d="M 53 130 C 63 142 43 173 55 183" fill="rgb(0,0,55)" stroke="rgb(0,0,55)" stroke-width="5" /><path d="M 63 120 C 73 142 53 166 65 188" fill="rgb(0,0,55)" stroke="rgb(0,0,55)" stroke-width="5" /><path d="M 53 130 C 63 142 43 173 55 183" fill="rgb(0,0,55)" stroke="rgb(0,0,55)" stroke-width="5" transform="rotate(180,100,150)" /><path d="M 63 120 C 73 142 53 166 65 188" fill="rgb(0,0,55)" stroke="rgb(0,0,55)" stroke-width="5" transform="rotate(180,100,150)" /><path d="M 87 98 L 128 98 L 128 107 L 87 107" fill="rgb(0,0,0)" stroke="rgb(0,0,0)" stroke-width="1" /><path d="M 87 98 L 128 98 L 128 107 L 87 107" fill="rgb(0,0,0)" stroke="rgb(0,0,0)" stroke-width="1" transform="rotate(180,100,150)" /><path d="M 96 103 Q 94 101 92 103 Q 94 105 96 103 L 89 103 L 128 103" fill="rgb(255,200,0)" stroke="rgb(255,200,0)" stroke-width="1" /><path d="M 96 103 Q 94 101 92 103 Q 94 105 96 103 L 89 103 L 128 103" fill="rgb(255,200,0)" stroke="rgb(255,200,0)" stroke-width="1" transform="rotate(180,100,150)" /><path d="M 125 45 C 118 95 147 90 135 110 Q 120 103 97 100 C 75 100 127 90 110 45" fill="rgb(255,200,0)" stroke="rgb(0,0,55)" stroke-width="1" /><path d="M 125 45 C 118 95 147 90 135 110 Q 120 103 97 100 C 75 100 127 90 110 45" fill="rgb(255,200,0)" stroke="rgb(0,0,55)" stroke-width="1" transform="rotate(180,100,150)" /><path d="M 125 150 Q 100 100 75 150 Q 100 200 125 150" fill="rgb(255,200,0)" stroke="rgb(0,0,55)" stroke-width="1" /><path d="M 87 107 Q 102 140 107 170 L 128 107" fill="rgb(0,0,55)" stroke="rgb(0,0,55)" stroke-width="1" /><path d="M 87 107 Q 102 140 107 170 L 128 107" fill="rgb(0,0,55)" stroke="rgb(0,0,55)" stroke-width="1" transform="rotate(180,100,150)" /><path d="M 125 150 Q 100 125 75 150 Q 100 175 125 150" fill="rgb(0,0,55)" stroke="rgb(0,0,55)" stroke-width="1" /><path d="M 125 150 Q 100 135 75 150 Q 100 165 125 150" fill="rgb(155,0,0)" stroke="rgb(0,0,55)" stroke-width="1" /><path d="M 20 82 C 12 70 4 88 20 98 C 36 88 28 70 20 82" fill="rgb(155,0,0)" stroke="rgb(155,0,0)" stroke-width="1" /><path d="M 180 202 C 172 190 164 208 180 218 C 196 208 188 190 180 202" fill="rgb(155,0,0)" stroke="rgb(155,0,0)" stroke-width="1" transform="rotate(180,180,210)" /><path d="M 135 240.0 C 125.0 225.0 115.0 247.5 135 260.0 C 155.0 247.5 145.0 225.0 135 240.0" fill="rgb(155,0,0)" stroke="rgb(155,0,0)" stroke-width="1" transform="rotate(180,135,250)" /><path d="M 22 15 L 38 15 M 30 15 L 30 55 C 30 70 10 70 10 55" fill="none" stroke="rgb(155,0,0)" stroke-width="6" /><path d="M 172 235 L 188 235 M 180 235 L 180 275 C 180 290 160 290 160 275" fill="none" stroke="rgb(155,0,0)" stroke-width="6" transform="rotate(180,175,260)" /></g></svg>