<?xml version="1.0" encoding="utf-8" ?>
<svg baseProfile="full" height="300px" version="1.1" width="200px" xmlns="http://www.w3.org/2000/svg" xmlns:ev="http://www.w3.org/2001/xml-events" xmlns:xlink="http://www.w3.org/1999/xlink"><defs /><g><rect fill="rgb(255,213,153)" height="300px" stroke="rgb(0,0,0)" width="200px" x="0" y="0" /><path d="M 45 25 L 45 275 L 155 275 L 155 25 L 45 25" fill="rgb(255,233,173)" stroke="rgb(0,0,55)" stroke-width="1" /><path d="M 65 32.5 C 45.0 50 55.0 67.5 65 52.5 C 75.0 67.5 85.0 50 65 32.5 M 63.75 52.5 C 64.5 65.0 50.0 62.5 65 62.5 C 80.0 62.5 65.5 65.0 66.25 52.5" fill="rgb(0,0,0)" stroke="rgb(0,0,0)" stroke-width="1" /><path d="M 65 26 L 80 45 L 120 45 L 135 26 L 65 26" fill="rgb(155,0,0)" stroke="rgb(0,0,0)" stroke-width="2" /><path d="M 65 26 L 80 45 L 120 45 L 135 26 L 65 26" fill="rgb(155,0,0)" stroke="rgb(0,0,0)" stroke-width="2" transform="rotate(180,100,150)" /><path d="M 70 25 L 80 40 L 90 40 L 87 25" fill="none" stroke="rgb(0,0,0)" stroke-width="2" /><path d="M 91 25 L 93 40 L 111 40 L 114 25" fill="none" stroke="rgb(0,0,0)" stroke-width="2" /><path d="M 118 25 L 115 40 L 120 40 L 130 25" fill="none" stroke="rgb(0,0,0)" stroke-width="2" /><path d="M 70 25 L 80 40 L 90 40 L 87 25" fill="none" stroke="rgb(0,0,0)" stroke-width="2" transform="rotate(180,100,150)" /><path d="M 91 25 L 93 40 L 111 40 L 114 25" fill="none" stroke="rgb(0,0,0)" stroke-width="2" transform="rotate(180,100,150)" /><path d="M 118 25 L 115 40 L 120 40 L 130 25" fill="none" stroke="rgb(0,0,0)" stroke-width="2" transform="rotate(180,100,150)" /><path d="M 120 45 Q 120 49 118 53 L 127 70 L 120 73 L 122 78 L 120 80 L 122 83 L 120 85 L 118 90 C 130 110 78 90 95 45" fill="none" stroke="rgb(0,0,55)" stroke-width="1" /><path d="M 120 45 Q 120 49 118 53 L 127 70 L 120 73 L 122 78 L 120 80 L 122 83 L 120 85 L 118 90 C 130 110 78 90 95 45" fill="none" stroke="rgb(0,0,55)" stroke-width="1" transform="rotate(180,100,150)" /><path d="M 115 50 L 105 55 L 115 60" fill="none" stroke="rgb(0,0,55)" stroke-width="1" /><path d="M 115 50 L 105 55 L 115 60" fill="none" stroke="rgb(0,0,55)" stroke-width="1" transform="rotate(180,100,150)" /><path d="M 113 51 Q 116 55 113 59 Q 110 55 113 51" fill="rgb(0,0,55)" stroke="rgb(0,0,55)" stroke-width="1" /><path d="M 113 51 Q 116 55 113 59 Q 110 55 113 51" fill="rgb(0,0,55)" stroke="rgb(0,0,55)" transform="rotate(180,100,150)" /><path d="M 121 79 L 112 81 L 121 81" fill="none" stroke="rgb(0,0,55)" stroke-width="2" /><path d="M 121 79 L 112 81 L 121 81" fill="none" stroke="rgb(0,0,55)" stroke-width="2" transform="rotate(180,100,150)" /><path d="M 118 75 C 116 72 112 80 105 77 Q 103 75 105 74" fill="none" stroke="rgb(0,0,55)" stroke-width="1" /><path d="M 118 75 C 116 72 112 80 105 77 Q 103 75 105 74" fill="none" stroke="rgb(0,0,55)" stroke-width="1" transform="rotate(180,100,150)" /><path d="M 46 109 L 102 96 L 113 110 L 100 150 L 46 150 L 46 109 " fill="rgb(155,0,0)" stroke="rgb(0,0,55)" stroke-width="1" /><path d="M 46 109 L 102 96 L 113 110 L 100 150 L 46 150 L 46 109 " fill="rgb(155,0,0)" stroke="rgb(0,0,55)" stroke-width="1" transform="rotate(180,100,150)" /><path d="M 80 45 C 87 95 58 90 70 110 Q 85 103 108 100 C 130 100 78 90 95 45" fill="rgb(255,200,0)" stroke="rgb(0,0,55)" stroke-width="1" /><path d="M 80 45 C 87 95 58 90 70 110 Q 85 103 108 100 C 130 100 78 90 95 45" fill="rgb(255,200,0)" stroke="rgb(0,0,55)" stroke-width="1" transform="rotate(180,100,150)" /><path d="M 154 107 L 154 180 Q 121 197 70 135 C 84 108 135 108 154 107" fill="rgb(0,0,55)" stroke="rgb(0,0,55)" stroke-width="1" /><path d="M 154 107 L 154 180 Q 121 197 70 135 C 84 108 135 108 154 107" fill="rgb(0,0,55)" stroke="rgb(0,0,55)" stroke-width="1" transform="rotate(180,100,150)" /><path d="M 120 97 L 93 150 L 100 150 L 127 99 L 120 97" fill="rgb(255,200,0)" stroke="rgb(0,0,55)" stroke-width="1" /><path d="M 120 97 L 93 150 L 100 150 L 127 99 L 120 97" fill="rgb(255,200,0)" stroke="rgb(0,0,55)" stroke-width="1" transform="rotate(180,100,150)" /><path d="M 127 99 L 154 107 Q 136 144 111 130" fill="rgb(155,0,0)" stroke="rgb(0,0,55)" stroke-width="1" /><path d="M 127 99 L 154 107 Q 136 144 111 130" fill="rgb(155,0,0)" stroke="rgb(0,0,55)" stroke-width="1" transform="rotate(180,100,150)" /><path d="M 46 135 C 75 150 125 140 154 160 L 154 165 C 125 145 75 155 46 140 L 46 135" fill="rgb(255,200,0)" stroke="rgb(0,0,55)" stroke-width="1" /><path d="M 80 140 Q 100 170 120 160 Q 100 120 80 140" fill="rgb(155,0,0)" stroke="rgb(0,0,55)" stroke-width="1" /><path d="M 140 60 Q 130 68 140 75 Q 150 68 140 60 L 135 55 L 140 50 Q 130 42 140 35 Q 150 42 140 50 L 145 55 L 140 60" fill="rgb(255,200,0)" stroke="rgb(0,0,55)" stroke-width="1" /><path d="M 140 60 Q 130 68 140 75 Q 150 68 140 60 L 135 55 L 140 50 Q 130 42 140 35 Q 150 42 140 50 L 145 55 L 140 60" fill="rgb(255,200,0)" stroke="rgb(0,0,55)" stroke-width="1" transform="rotate(180,100,150)" /><path d="M 20 76 C 4 90 12 104 20 92 C 28 104 36 90 20 76 M 19.0 92 C 19.6 102 8 100 20 100 C 32 100 20.4 102 21.0 92" fill="rgb(0,0,0)" stroke="rgb(0,0,0)" stroke-width="1" /><path d="M 180 196 C 164 210 172 224 180 212 C 188 224 196 210 180 196 M 179.0 212 C 179.6 222 168 220 180 220 C 192 220 180.4 222 181.0 212" fill="rgb(0,0,0)" stroke="rgb(0,0,0)" stroke-width="1" transform="rotate(180,180,210)" /><path d="M 135 232.5 C 115.0 250 125.0 267.5 135 252.5 C 145.0 267.5 155.0 250 135 232.5 M 133.75 252.5 C 134.5 265.0 120.0 262.5 135 262.5 C 150.0 262.5 135.5 265.0 136.25 252.5" fill="rgb(0,0,0)" stroke="rgb(0,0,0)" stroke-width="1" transform="rotate(180,135,250)" /><path d="M 22 15 L 38 15 M 30 15 L 30 55 C 30 70 10 70 10 55" fill="none" stroke="rgb(0,0,0)" stroke-width="6" /><path d="M 172 235 L 188 235 M 180 235 L 180 275 C 180 290 160 290 160 275" fill="none" stroke="rgb(0,0,0)" stroke-width="6" transform="rotate(180,175,260)" /></g></svg>