<?xml version="1.0" encoding="utf-8" ?>
<svg baseProfile="full" height="300px" version="1.1" width="200px" xmlns="http://www.w3.org/2000/svg" xmlns:ev="http://www.w3.org/2001/xml-events" xmlns:xlink="http://www.w3.org/1999/xlink"><defs /><g><rect fill="rgb(255,213,153)" height="300px" stroke="rgb(0,0,0)" width="200px" x="0" y="0" /><path d="M 45 25 L 45 275 L 155 275 L 155 25 L 45 25" fill="rgb(255,233,173)" stroke="rgb(0,0,55)" stroke-width="1" /><path d="M 136 62 L 152 60 Q 138 40 152 25 L 120 25 Q 128 50 136 62" fill="rgb(255,200,0)" stroke="rgb(0,0,55)" stroke-width="1" /><path d="M 136 62 L 152 60 Q 138 40 152 25 L 120 25 Q 128 50 136 62" fill="rgb(255,200,0)" stroke="rgb(0,0,55)" stroke-width="1" transform="rotate(180,100,150)" /><path d="M 115 25 Q 123 50 140 75 L 145 75 Q 128 50 120 25" fill="rgb(0,0,0)" stroke="rgb(0,0,0)" stroke-width="1" /><path d="M 115 25 Q 123 50 140 75 L 145 75 Q 128 50 120 25" fill="rgb(0,0,0)" stroke="rgb(0,0,0)" stroke-width="1" transform="rotate(180,100,150)" /><path d="M 108 25 Q 106 35 98 45 M 104 25 Q 102 32 98 40 M 100 25 Q 100 27 98 32 M 108 25 Q 110 35 124 45 M 112 25 Q 114 33 124 38" fill="none" stroke="rgb(0,0,55)" stroke-width="1" /><path d="M 108 25 Q 106 35 98 45 M 104 25 Q 102 32 98 40 M 100 25 Q 100 27 98 32 M 108 25 Q 110 35 124 45 M 112 25 Q 114 33 124 38" fill="none" stroke="rgb(0,0,55)" stroke-width="1" transform="rotate(180,100,150)" /><path d="M 97 25 C 99 80 102 87 130 60" fill="none" stroke="rgb(0,0,55)" stroke-width="1" /><path d="M 97 25 C 99 80 102 87 130 60" fill="none" stroke="rgb(0,0,55)" stroke-width="1" transform="rotate(180,100,150)" /><path d="M 110 50 C 98 48 102 65 110 58" fill="none" stroke="rgb(0,0,55)" stroke-width="1" /><path d="M 110 50 C 98 48 102 65 110 58" fill="none" stroke="rgb(0,0,55)" stroke-width="1" transform="rotate(180,100,150)" /><path d="M 120 45 Q 116 50 112 45 Q 116 40 120 45 " fill="none" stroke="rgb(0,0,55)" stroke-width="1" /><path d="M 120 45 Q 116 50 112 45 Q 116 40 120 45 " fill="none" stroke="rgb(0,0,55)" stroke-width="1" transform="rotate(180,100,150)" /><path d="M 117 45 Q 116 50 115 45 Q 116 40 117 45 " fill="rgb(0,0,0)" stroke="rgb(0,0,55)" stroke-width="1" /><path d="M 117 45 Q 116 50 115 45 Q 116 40 117 45 " fill="rgb(0,0,0)" stroke="rgb(0,0,55)" stroke-width="1" transform="rotate(180,100,150)" /><path d="M 108 45 Q 104 50 100 45 Q 104 40 108 45 " fill="none" stroke="rgb(0,0,55)" stroke-width="1" /><path d="M 108 45 Q 104 50 100 45 Q 104 40 108 45 " fill="none" stroke="rgb(0,0,55)" stroke-width="1" transform="rotate(180,100,150)" /><path d="M 105 45 Q 104 50 103 45 Q 104 40 105 45 " fill="rgb(0,0,0)" stroke="rgb(0,0,55)" stroke-width="1" /><path d="M 105 45 Q 104 50 103 45 Q 104 40 105 45 " fill="rgb(0,0,0)" stroke="rgb(0,0,55)" stroke-width="1" transform="rotate(180,100,150)" /><path d="M 117 62 L 103 62" fill="rgb(0,0,0)" stroke="rgb(0,0,55)" stroke-width="1" /><path d="M 117 62 L 103 62" fill="rgb(0,0,0)" stroke="rgb(0,0,55)" stroke-width="1" transform="rotate(180,100,150)" /><path d="M 110 64 L 106 64" fill="rgb(0,0,0)" stroke="rgb(0,0,55)" stroke-width="1" /><path d="M 110 64 L 106 64" fill="rgb(0,0,0)" stroke="rgb(0,0,55)" stroke-width="1" transform="rotate(180,100,150)" /><path d="M 155 110 L 147 95 L 85 95 Q 67 107 45 112 L 45 150 L 155 150 Z" fill="rgb(155,0,0)" stroke="rgb(0,0,0)" stroke-width="1" /><path d="M 155 110 L 147 95 L 85 95 Q 67 107 45 112 L 45 150 L 155 150 Z" fill="rgb(155,0,0)" stroke="rgb(0,0,0)" stroke-width="1" transform="rotate(180,100,150)" /><path d="M 90 76 L 142 76 L 142 87 L 90 87 Z" fill="rgb(255,200,0)" stroke="rgb(0,0,55)" stroke-width="1" /><path d="M 90 76 L 142 76 L 142 87 L 90 87 Z" fill="rgb(255,200,0)" stroke="rgb(0,0,55)" stroke-width="1" transform="rotate(180,100,150)" /><path d="M 85 87 L 147 87 L 147 100 L 85 100 Z" fill="rgb(0,0,0)" stroke="rgb(0,0,0)" stroke-width="1" /><path d="M 85 87 L 147 87 L 147 100 L 85 100 Z" fill="rgb(0,0,0)" stroke="rgb(0,0,0)" stroke-width="1" transform="rotate(180,100,150)" /><path d="M 96 100 Q 101 120 96 150 L 104 150 Q 108 120 132 100 Z" fill="rgb(255,200,0)" stroke="rgb(0,0,55)" stroke-width="1" /><path d="M 96 100 Q 101 120 96 150 L 104 150 Q 108 120 132 100 Z" fill="rgb(255,200,0)" stroke="rgb(0,0,55)" stroke-width="1" transform="rotate(180,100,150)" /><path d="M 45 143 L 155 143 L 155 157 L 45 157 Z" fill="rgb(0,0,0)" stroke="rgb(0,0,0)" stroke-width="1" /><path d="M 94 25 C 104 57 67 80 73 102 L 80 102 C 67 87 104 64 96 25 Z" fill="rgb(155,0,0)" stroke="rgb(0,0,0)" stroke-width="1" /><path d="M 94 25 C 104 57 67 80 73 102 L 80 102 C 67 87 104 64 96 25 Z" fill="rgb(155,0,0)" stroke="rgb(0,0,0)" stroke-width="1" transform="rotate(180,100,150)" /><path d="M 83 97 L 45 112 L 45 120 L 87 105 Z" fill="rgb(0,0,55)" stroke="rgb(0,0,0)" stroke-width="1" /><path d="M 83 97 L 45 112 L 45 120 L 87 105 Z" fill="rgb(0,0,55)" stroke="rgb(0,0,0)" stroke-width="1" transform="rotate(180,100,150)" /><path d="M 155 110 Q 80 115 155 180" fill="rgb(0,0,55)" stroke="rgb(0,0,0)" stroke-width="1" /><path d="M 155 110 Q 80 115 155 180" fill="rgb(0,0,55)" stroke="rgb(0,0,0)" stroke-width="1" transform="rotate(180,100,150)" /><path d="M 60 80 Q 55 73 60 70 Q 65 73 60 80 Q 53 85 50 80 Q 53 75 60 80 Q 67 85 70 80 Q 67 75 60 80 Q 55 87 60 90 Q 65 87 60 80" fill="rgb(255,200,0)" stroke="rgb(0,0,55)" stroke-width="1" /><path d="M 60 80 Q 55 73 60 70 Q 65 73 60 80 Q 53 85 50 80 Q 53 75 60 80 Q 67 85 70 80 Q 67 75 60 80 Q 55 87 60 90 Q 65 87 60 80" fill="rgb(255,200,0)" stroke="rgb(0,0,55)" stroke-width="1" transform="rotate(180,100,150)" /><path d="M 59 90 C 58 96 78 104 78 114 L 82 110 C 82 104 62 96 61 90 L 59 90" fill="rgb(255,200,0)" stroke="rgb(0,0,55)" stroke-width="0.5" /><path d="M 59 90 C 58 96 78 104 78 114 L 82 110 C 82 104 62 96 61 90 L 59 90" fill="rgb(255,200,0)" stroke="rgb(0,0,55)" stroke-width="0.5" transform="rotate(180,100,150)" /><path d="M 65 32.5 C 57.5 35.0 55.0 40.0 65 50 C 75.0 40.0 72.5 35.0 65 32.5 M 82.5 50 C 80.0 42.5 75.0 40.0 65 50 C 75.0 60.0 80.0 57.5 82.5 50 M 47.5 50 C 50.0 42.5 55.0 40.0 65 50 C 55.0 60.0 50.0 57.5 47.5 50 M 64.5 50 C 64.5 65.0 52.5 62.5 65 62.5 C 77.5 62.5 65.5 65.0 65.5 50" fill="rgb(0,0,0)" stroke="rgb(0,0,0)" stroke-width="1" /><path d="M 20 76 C 14 78 12 82 20 90 C 28 82 26 78 20 76 M 34 90 C 32 84 28 82 20 90 C 28 98 32 96 34 90 M 6 90 C 8 84 12 82 20 90 C 12 98 8 96 6 90 M 19.6 90 C 19.6 102 10 100 20 100 C 30 100 20.4 102 20.4 90" fill="rgb(0,0,0)" stroke="rgb(0,0,0)" stroke-width="1" /><path d="M 180 196 C 174 198 172 202 180 210 C 188 202 186 198 180 196 M 194 210 C 192 204 188 202 180 210 C 188 218 192 216 194 210 M 166 210 C 168 204 172 202 180 210 C 172 218 168 216 166 210 M 179.6 210 C 179.6 222 170 220 180 220 C 190 220 180.4 222 180.4 210" fill="rgb(0,0,0)" stroke="rgb(0,0,0)" stroke-width="1" transform="rotate(180,180,210)" /><path d="M 135 232.5 C 127.5 235.0 125.0 240.0 135 250 C 145.0 240.0 142.5 235.0 135 232.5 M 152.5 250 C 150.0 242.5 145.0 240.0 135 250 C 145.0 260.0 150.0 257.5 152.5 250 M 117.5 250 C 120.0 242.5 125.0 240.0 135 250 C 125.0 260.0 120.0 257.5 117.5 250 M 134.5 250 C 134.5 265.0 122.5 262.5 135 262.5 C 147.5 262.5 135.5 265.0 135.5 250" fill="rgb(0,0,0)" stroke="rgb(0,0,0)" stroke-width="1" transform="rotate(180,135,250)" /><path d="M 25 15 C 40 15 40 65 25 65 C 10 65 10 15 25 15 M 15 50 C 25 45 30 65 40 65" fill="none" stroke="rgb(0,0,0)" stroke-width="6" /><path d="M 175 235 C 190 235 190 285 175 285 C 160 285 160 235 175 235 M 165 270 C 175 265 180 285 190 285" fill="none" stroke="rgb(0,0,0)" stroke-width="6" transform="rotate(180,175,260)" /></g></svg>