<?xml version="1.0" encoding="utf-8" ?>
<svg baseProfile="full" height="300px" version="1.1" width="200px" xmlns="http://www.w3.org/2000/svg" xmlns:ev="http://www.w3.org/2001/xml-events" xmlns:xlink="http://www.w3.org/1999/xlink"><defs /><g><rect fill="rgb(255,213,153)" height="300px" stroke="rgb(155,0,0)" width="200px" x="0" y="0" /><path d="M 45 25 L 45 275 L 155 275 L 155 25 L 45 25" fill="rgb(255,233,173)" stroke="rgb(0,0,55)" stroke-width="1" /><path d="M 136 62 L 152 60 Q 138 40 152 25 L 120 25 Q 128 50 136 62" fill="rgb(255,200,0)" stroke="rgb(0,0,55)" stroke-width="1" /><path d="M 136 62 L 152 60 Q 138 40 152 25 L 120 25 Q 128 50 136 62" fill="rgb(255,200,0)" stroke="rgb(0,0,55)" stroke-width="1" transform="rotate(180,100,150)" /><path d="M 115 25 Q 123 50 140 75 L 145 75 Q 128 50 120 25" fill="rgb(0,0,0)" stroke="rgb(0,0,0)" stroke-width="1" /><path d="M 115 25 Q 123 50 140 75 L 145 75 Q 128 50 120 25" fill="rgb(0,0,0)" stroke="rgb(0,0,0)" stroke-width="1" transform="rotate(180,100,150)" /><path d="M 108 25 Q 106 35 98 45 M 104 25 Q 102 32 98 40 M 100 25 Q 100 27 98 32 M 108 25 Q 110 35 124 45 M 112 25 Q 114 33 124 38" fill="none" stroke="rgb(0,0,55)" stroke-width="1" /><path d="M 108 25 Q 106 35 98 45 M 104 25 Q 102 32 98 40 M 100 25 Q 100 27 98 32 M 108 25 Q 110 35 124 45 M 112 25 Q 114 33 124 38" fill="none" stroke="rgb(0,0,55)" stroke-width="1" transform="rotate(180,100,150)" /><path d="M 97 25 C 99 80 102 87 130 60" fill="none" stroke="rgb(0,0,55)" stroke-width="1" /><path d="M 97 25 C 99 80 102 87 130 60" fill="none" stroke="rgb(0,0,55)" stroke-width="1" transform="rotate(180,100,150)" /><path d="M 110 50 C 98 48 102 65 110 58" fill="none" stroke="rgb(0,0,55)" stroke-width="1" /><path d="M 110 50 C 98 48 102 65 110 58" fill="none" stroke="rgb(0,0,55)" stroke-width="1" transform="rotate(180,100,150)" /><path d="M 120 45 Q 116 50 112 45 Q 116 40 120 45 " fill="none" stroke="rgb(0,0,55)" stroke-width="1" /><path d="M 120 45 Q 116 50 112 45 Q 116 40 120 45 " fill="none" stroke="rgb(0,0,55)" stroke-width="1" transform="rotate(180,100,150)" /><path d="M 117 45 Q 116 50 115 45 Q 116 40 117 45 " fill="rgb(0,0,0)" stroke="rgb(0,0,55)" stroke-width="1" /><path d="M 117 45 Q 116 50 115 45 Q 116 40 117 45 " fill="rgb(0,0,0)" stroke="rgb(0,0,55)" stroke-width="1" transform="rotate(180,100,150)" /><path d="M 108 45 Q 104 50 100 45 Q 104 40 108 45 " fill="none" stroke="rgb(0,0,55)" stroke-width="1" /><path d="M 108 45 Q 104 50 100 45 Q 104 40 108 45 " fill="none" stroke="rgb(0,0,55)" stroke-width="1" transform="rotate(180,100,150)" /><path d="M 105 45 Q 104 50 103 45 Q 104 40 105 45 " fill="rgb(0,0,0)" stroke="rgb(0,0,55)" stroke-width="1" /><path d="M 105 45 Q 104 50 103 45 Q 104 40 105 45 " fill="rgb(0,0,0)" stroke="rgb(0,0,55)" stroke-width="1" transform="rotate(180,100,150)" /><path d="M 117 62 L 103 62" fill="rgb(0,0,0)" stroke="rgb(0,0,55)" stroke-width="1" /><path d="M 117 62 L 103 62" fill="rgb(0,0,0)" stroke="rgb(0,0,55)" stroke-width="1" transform="rotate(180,100,150)" /><path d="M 110 64 L 106 64" fill="rgb(0,0,0)" stroke="rgb(0,0,55)" stroke-width="1" /><path d="M 110 64 L 106 64" fill="rgb(0,0,0)" stroke="rgb(0,0,55)" stroke-width="1" transform="rotate(180,100,150)" /><path d="M 155 92 L 155 150 L 80 150 L 80 105 Z" fill="rgb(155,0,0)" stroke="rgb(0,0,55)" stroke-width="1" /><path d="M 155 92 L 155 150 L 80 150 L 80 105 Z" fill="rgb(155,0,0)" stroke="rgb(0,0,55)" stroke-width="1" transform="rotate(180,100,150)" /><path d="M 94 25 C 104 57 67 80 73 102 L 80 102 C 67 87 104 64 96 25 Z" fill="rgb(155,0,0)" stroke="rgb(0,0,0)" stroke-width="1" /><path d="M 94 25 C 104 57 67 80 73 102 L 80 102 C 67 87 104 64 96 25 Z" fill="rgb(155,0,0)" stroke="rgb(0,0,0)" stroke-width="1" transform="rotate(180,100,150)" /><path d="M 83 83 L 92 75 Q 116 112 140 75 L 149 83 Q 116 121 83 83" fill="rgb(0,0,0)" stroke="rgb(0,0,55)" stroke-width="1" /><path d="M 83 83 L 92 75 Q 116 112 140 75 L 149 83 Q 116 121 83 83" fill="rgb(0,0,0)" stroke="rgb(0,0,55)" stroke-width="1" transform="rotate(180,100,150)" /><path d="M 83 83 L 74 92 Q 116 130 155 92 L 149 83 Q 116 121 83 83" fill="rgb(255,200,0)" stroke="rgb(0,0,55)" stroke-width="1" /><path d="M 83 83 L 74 92 Q 116 130 155 92 L 149 83 Q 116 121 83 83" fill="rgb(255,200,0)" stroke="rgb(0,0,55)" stroke-width="1" transform="rotate(180,100,150)" /><path d="M 74 92 Q 60 100 45 130 L 45 170 Q 175 150 74 92" fill="rgb(0,0,55)" stroke="rgb(0,0,55)" stroke-width="1" /><path d="M 74 92 Q 60 100 45 130 L 45 170 Q 175 150 74 92" fill="rgb(0,0,55)" stroke="rgb(0,0,55)" stroke-width="1" transform="rotate(180,100,150)" /><path d="M 60 80 Q 55 73 60 70 Q 65 73 60 80 Q 53 85 50 80 Q 53 75 60 80 Q 67 85 70 80 Q 67 75 60 80 Q 55 87 60 90 Q 65 87 60 80" fill="rgb(255,200,0)" stroke="rgb(0,0,55)" stroke-width="1" /><path d="M 60 80 Q 55 73 60 70 Q 65 73 60 80 Q 53 85 50 80 Q 53 75 60 80 Q 67 85 70 80 Q 67 75 60 80 Q 55 87 60 90 Q 65 87 60 80" fill="rgb(255,200,0)" stroke="rgb(0,0,55)" stroke-width="1" transform="rotate(180,100,150)" /><path d="M 59 90 C 58 96 78 104 78 114 L 82 110 C 82 104 62 96 61 90 L 59 90" fill="rgb(255,200,0)" stroke="rgb(0,0,55)" stroke-width="0.5" /><path d="M 59 90 C 58 96 78 104 78 114 L 82 110 C 82 104 62 96 61 90 L 59 90" fill="rgb(255,200,0)" stroke="rgb(0,0,55)" stroke-width="0.5" transform="rotate(180,100,150)" /><path d="M 70 145 C 90 105 110 185 130 145 L 130 155 C 110 195 90 115 70 155 Z" fill="rgb(255,200,0)" stroke="rgb(0,0,55)" stroke-width="1" /><path d="M 65 35.0 C 61.25 42.5 57.5 47.5 57.5 47.5 C 57.5 47.5 61.25 52.5 65 60.0 C 68.75 52.5 72.5 47.5 72.5 47.5 C 72.5 47.5 68.75 42.5 65 35.0" fill="rgb(155,0,0)" stroke="rgb(155,0,0)" stroke-width="1" /><path d="M 20 78 C 17.0 84 14 88 14 88 C 14 88 17.0 92 20 98 C 23.0 92 26 88 26 88 C 26 88 23.0 84 20 78" fill="rgb(155,0,0)" stroke="rgb(155,0,0)" stroke-width="1" /><path d="M 180 198 C 177.0 204 174 208 174 208 C 174 208 177.0 212 180 218 C 183.0 212 186 208 186 208 C 186 208 183.0 204 180 198" fill="rgb(155,0,0)" stroke="rgb(155,0,0)" stroke-width="1" transform="rotate(180,180,210)" /><path d="M 135 235.0 C 131.25 242.5 127.5 247.5 127.5 247.5 C 127.5 247.5 131.25 252.5 135 260.0 C 138.75 252.5 142.5 247.5 142.5 247.5 C 142.5 247.5 138.75 242.5 135 235.0" fill="rgb(155,0,0)" stroke="rgb(155,0,0)" stroke-width="1" transform="rotate(180,135,250)" /><path d="M 25 15 C 40 15 40 65 25 65 C 10 65 10 15 25 15 M 15 50 C 25 45 30 65 40 65" fill="none" stroke="rgb(155,0,0)" stroke-width="6" /><path d="M 175 235 C 190 235 190 285 175 285 C 160 285 160 235 175 235 M 165 270 C 175 265 180 285 190 285" fill="none" stroke="rgb(155,0,0)" stroke-width="6" transform="rotate(180,175,260)" /></g></svg>