<?xml version="1.0" encoding="utf-8" ?>
<svg baseProfile="full" height="300px" version="1.1" width="200px" xmlns="http://www.w3.org/2000/svg" xmlns:ev="http://www.w3.org/2001/xml-events" xmlns:xlink="http://www.w3.org/1999/xlink"><defs /><g><rect fill="rgb(255,213,153)" height="300px" stroke="rgb(155,0,0)" width="200px" x="0" y="0" /><path d="M 45 25 L 45 275 L 155 275 L 155 25 L 45 25" fill="rgb(255,233,173)" stroke="rgb(0,0,55)" stroke-width="1" /><path d="M 136 62 L 152 60 Q 138 40 152 25 L 120 25 Q 128 50 136 62" fill="rgb(255,200,0)" stroke="rgb(0,0,55)" stroke-width="1" /><path d="M 136 62 L 152 60 Q 138 40 152 25 L 120 25 Q 128 50 136 62" fill="rgb(255,200,0)" stroke="rgb(0,0,55)" stroke-width="1" transform="rotate(180,100,150)" /><path d="M 115 25 Q 123 50 140 75 L 145 75 Q 128 50 120 25" fill="rgb(0,0,0)" stroke="rgb(0,0,0)" stroke-width="1" /><path d="M 115 25 Q 123 50 140 75 L 145 75 Q 128 50 120 25" fill="rgb(0,0,0)" stroke="rgb(0,0,0)" stroke-width="1" transform="rotate(180,100,150)" /><path d="M 108 25 Q 106 35 98 45 M 104 25 Q 102 32 98 40 M 100 25 Q 100 27 98 32 M 108 25 Q 110 35 124 45 M 112 25 Q 114 33 124 38" fill="none" stroke="rgb(0,0,55)" stroke-width="1" /><path d="M 108 25 Q 106 35 98 45 M 104 25 Q 102 32 98 40 M 100 25 Q 100 27 98 32 M 108 25 Q 110 35 124 45 M 112 25 Q 114 33 124 38" fill="none" stroke="rgb(0,0,55)" stroke-width="1" transform="rotate(180,100,150)" /><path d="M 97 25 C 99 80 102 87 130 60" fill="none" stroke="rgb(0,0,55)" stroke-width="1" /><path d="M 97 25 C 99 80 102 87 130 60" fill="none" stroke="rgb(0,0,55)" stroke-width="1" transform="rotate(180,100,150)" /><path d="M 110 50 C 98 48 102 65 110 58" fill="none" stroke="rgb(0,0,55)" stroke-width="1" /><path d="M 110 50 C 98 48 102 65 110 58" fill="none" stroke="rgb(0,0,55)" stroke-width="1" transform="rotate(180,100,150)" /><path d="M 120 45 Q 116 50 112 45 Q 116 40 120 45 " fill="none" stroke="rgb(0,0,55)" stroke-width="1" /><path d="M 120 45 Q 116 50 112 45 Q 116 40 120 45 " fill="none" stroke="rgb(0,0,55)" stroke-width="1" transform="rotate(180,100,150)" /><path d="M 117 45 Q 116 50 115 45 Q 116 40 117 45 " fill="rgb(0,0,0)" stroke="rgb(0,0,55)" stroke-width="1" /><path d="M 117 45 Q 116 50 115 45 Q 116 40 117 45 " fill="rgb(0,0,0)" stroke="rgb(0,0,55)" stroke-width="1" transform="rotate(180,100,150)" /><path d="M 108 45 Q 104 50 100 45 Q 104 40 108 45 " fill="none" stroke="rgb(0,0,55)" stroke-width="1" /><path d="M 108 45 Q 104 50 100 45 Q 104 40 108 45 " fill="none" stroke="rgb(0,0,55)" stroke-width="1" transform="rotate(180,100,150)" /><path d="M 105 45 Q 104 50 103 45 Q 104 40 105 45 " fill="rgb(0,0,0)" stroke="rgb(0,0,55)" stroke-width="1" /><path d="M 105 45 Q 104 50 103 45 Q 104 40 105 45 " fill="rgb(0,0,0)" stroke="rgb(0,0,55)" stroke-width="1" transform="rotate(180,100,150)" /><path d="M 117 62 L 103 62" fill="rgb(0,0,0)" stroke="rgb(0,0,55)" stroke-width="1" /><path d="M 117 62 L 103 62" fill="rgb(0,0,0)" stroke="rgb(0,0,55)" stroke-width="1" transform="rotate(180,100,150)" /><path d="M 110 64 L 106 64" fill="rgb(0,0,0)" stroke="rgb(0,0,55)" stroke-width="1" /><path d="M 110 64 L 106 64" fill="rgb(0,0,0)" stroke="rgb(0,0,55)" stroke-width="1" transform="rotate(180,100,150)" /><path d="M 75 83 L 45 132 L 45 150 L 155 150 L 155 95 L 145 83 Z" fill="rgb(155,0,0)" stroke="rgb(0,0,0)" stroke-width="1" /><path d="M 75 83 L 45 132 L 45 150 L 155 150 L 155 95 L 145 83 Z" fill="rgb(155,0,0)" stroke="rgb(0,0,0)" stroke-width="1" transform="rotate(180,100,150)" /><path d="M 120 95 Q 112 101 96 150 Q 101 112 94 94" fill="rgb(255,200,0)" stroke="rgb(0,0,0)" stroke-width="1" /><path d="M 120 95 Q 112 101 96 150 Q 101 112 94 94" fill="rgb(255,200,0)" stroke="rgb(0,0,0)" stroke-width="1" transform="rotate(180,100,150)" /><path d="M 125 217 C 160 170 110 129 155 95 L 145 83 C 100 124 150 165 107 207" fill="rgb(0,0,55)" stroke="rgb(0,0,55)" stroke-width="1" /><path d="M 125 217 C 160 170 110 129 155 95 L 145 83 C 100 124 150 165 107 207" fill="rgb(0,0,55)" stroke="rgb(0,0,55)" stroke-width="1" transform="rotate(180,100,150)" /><path d="M 145 83 L 137 67 Q 120 87 100 74 L 75 83 Q 110 110 145 83" fill="rgb(0,0,0)" stroke="rgb(0,0,0)" stroke-width="1" /><path d="M 145 83 L 137 67 Q 120 87 100 74 L 75 83 Q 110 110 145 83" fill="rgb(0,0,0)" stroke="rgb(0,0,0)" stroke-width="1" transform="rotate(180,100,150)" /><path d="M 145 78 Q 150 71 145 68 Q 140 71 145 78 Q 152 83 155 78 Q 152 73 145 78 Q 138 83 135 78 Q 138 73 145 78 Q 150 85 145 88 Q 140 85 145 78" fill="rgb(255,200,0)" stroke="rgb(0,0,55)" stroke-width="1" /><path d="M 145 78 Q 150 71 145 68 Q 140 71 145 78 Q 152 83 155 78 Q 152 73 145 78 Q 138 83 135 78 Q 138 73 145 78 Q 150 85 145 88 Q 140 85 145 78" fill="rgb(255,200,0)" stroke="rgb(0,0,55)" stroke-width="1" transform="rotate(180,100,150)" /><path d="M 144 88 C 145 94 125 102 125 112 L 121 108 C 121 102 141 94 142 88 L 144 88" fill="rgb(255,200,0)" stroke="rgb(0,0,55)" stroke-width="0.5" /><path d="M 144 88 C 145 94 125 102 125 112 L 121 108 C 121 102 141 94 142 88 L 144 88" fill="rgb(255,200,0)" stroke="rgb(0,0,55)" stroke-width="0.5" transform="rotate(180,100,150)" /><path d="M 45 142 C 83 122 120 162 155 142 L 155 158 C 120 178 83 138 45 158" fill="rgb(255,200,0)" stroke="rgb(0,0,55)" stroke-width="0.5" /><path d="M 65 40.0 C 55.0 25.0 45.0 47.5 65 60.0 C 85.0 47.5 75.0 25.0 65 40.0" fill="rgb(155,0,0)" stroke="rgb(155,0,0)" stroke-width="1" /><path d="M 20 82 C 12 70 4 88 20 98 C 36 88 28 70 20 82" fill="rgb(155,0,0)" stroke="rgb(155,0,0)" stroke-width="1" /><path d="M 180 202 C 172 190 164 208 180 218 C 196 208 188 190 180 202" fill="rgb(155,0,0)" stroke="rgb(155,0,0)" stroke-width="1" transform="rotate(180,180,210)" /><path d="M 135 240.0 C 125.0 225.0 115.0 247.5 135 260.0 C 155.0 247.5 145.0 225.0 135 240.0" fill="rgb(155,0,0)" stroke="rgb(155,0,0)" stroke-width="1" transform="rotate(180,135,250)" /><path d="M 25 15 C 40 15 40 65 25 65 C 10 65 10 15 25 15 M 15 50 C 25 45 30 65 40 65" fill="none" stroke="rgb(155,0,0)" stroke-width="6" /><path d="M 175 235 C 190 235 190 285 175 285 C 160 285 160 235 175 235 M 165 270 C 175 265 180 285 190 285" fill="none" stroke="rgb(155,0,0)" stroke-width="6" transform="rotate(180,175,260)" /></g></svg>