<?xml version="1.0" encoding="utf-8" ?>
<svg baseProfile="full" height="300px" version="1.1" width="200px" xmlns="http://www.w3.org/2000/svg" xmlns:ev="http://www.w3.org/2001/xml-events" xmlns:xlink="http://www.w3.org/1999/xlink"><defs /><g><rect fill="rgb(255,213,153)" height="300px" stroke="rgb(0,0,0)" width="200px" x="0" y="0" /><path d="M 45 25 L 45 275 L 155 275 L 155 25 L 45 25" fill="rgb(255,233,173)" stroke="rgb(0,0,55)" stroke-width="1" /><path d="M 135 25 C 133 80 130 87 102 60" fill="none" stroke="rgb(0,0,55)" stroke-width="1" /><path d="M 135 25 C 133 80 130 87 102 60" fill="none" stroke="rgb(0,0,55)" stroke-width="1" transform="rotate(180,100,150)" /><path d="M 122 50 C 134 48 130 65 122 58" fill="none" stroke="rgb(0,0,55)" stroke-width="1" /><path d="M 122 50 C 134 48 130 65 122 58" fill="none" stroke="rgb(0,0,55)" stroke-width="1" transform="rotate(180,100,150)" /><path d="M 112 45 Q 116 50 120 45 Q 116 40 112 45" fill="none" stroke="rgb(0,0,55)" stroke-width="1" /><path d="M 112 45 Q 116 50 120 45 Q 116 40 112 45" fill="none" stroke="rgb(0,0,55)" stroke-width="1" transform="rotate(180,100,150)" /><path d="M 115 45 Q 116 50 117 45 Q 116 40 115 45 " fill="rgb(0,0,0)" stroke="rgb(0,0,55)" stroke-width="1" /><path d="M 115 45 Q 116 50 117 45 Q 116 40 115 45 " fill="rgb(0,0,0)" stroke="rgb(0,0,55)" stroke-width="1" transform="rotate(180,100,150)" /><path d="M 124 45 Q 128 50 132 45 Q 128 40 124 45 " fill="none" stroke="rgb(0,0,55)" stroke-width="1" /><path d="M 124 45 Q 128 50 132 45 Q 128 40 124 45 " fill="none" stroke="rgb(0,0,55)" stroke-width="1" transform="rotate(180,100,150)" /><path d="M 127 45 Q 128 50 129 45 Q 128 40 127 45 " fill="rgb(0,0,0)" stroke="rgb(0,0,55)" stroke-width="1" /><path d="M 127 45 Q 128 50 129 45 Q 128 40 127 45 " fill="rgb(0,0,0)" stroke="rgb(0,0,55)" stroke-width="1" transform="rotate(180,100,150)" /><path d="M 115 62 L 129 62" fill="rgb(0,0,0)" stroke="rgb(0,0,55)" stroke-width="1" /><path d="M 115 62 L 129 62" fill="rgb(0,0,0)" stroke="rgb(0,0,55)" stroke-width="1" transform="rotate(180,100,150)" /><path d="M 122 64 L 126 64" fill="rgb(0,0,0)" stroke="rgb(0,0,55)" stroke-width="1" /><path d="M 122 64 L 126 64" fill="rgb(0,0,0)" stroke="rgb(0,0,55)" stroke-width="1" transform="rotate(180,100,150)" /><path d="M 62 99 L 45 112 L 45 130 L 138 201 L 155 188 L 155 170 Z" fill="rgb(255,200,0)" stroke="rgb(0,0,55)" stroke-width="1" /><path d="M 45 145 L 155 145 L 155 155 L 45 155 Z" fill="rgb(0,0,0)" stroke="rgb(0,0,55)" stroke-width="1" /><path d="M 83 79 L 62 99 Q 110 147 155 170 L 155 100 Q 145 94 135 72 Q 112 100 83 79" fill="rgb(155,0,0)" stroke="rgb(0,0,55)" stroke-width="1" /><path d="M 83 79 L 62 99 Q 110 147 155 170 L 155 100 Q 145 94 135 72 Q 112 100 83 79" fill="rgb(155,0,0)" stroke="rgb(0,0,55)" stroke-width="1" transform="rotate(180,100,150)" /><path d="M 96 67 Q 123 90 135 72 L 125 130 L 83 79 L 96 67" fill="rgb(255,200,0)" stroke="rgb(0,0,55)" stroke-width="1" /><path d="M 96 67 Q 123 90 135 72 L 125 130 L 83 79 L 96 67" fill="rgb(255,200,0)" stroke="rgb(0,0,55)" stroke-width="1" transform="rotate(180,100,150)" /><path d="M 62 99 L 45 112 L 45 130 Q 120 140 62 99" fill="rgb(0,0,55)" stroke="rgb(0,0,55)" stroke-width="1" /><path d="M 62 99 L 45 112 L 45 130 Q 120 140 62 99" fill="rgb(0,0,55)" stroke="rgb(0,0,55)" stroke-width="1" transform="rotate(180,100,150)" /><path d="M 60 80 Q 55 73 60 70 Q 65 73 60 80 Q 53 85 50 80 Q 53 75 60 80 Q 67 85 70 80 Q 67 75 60 80 Q 55 87 60 90 Q 65 87 60 80" fill="rgb(255,200,0)" stroke="rgb(0,0,55)" stroke-width="1" /><path d="M 60 80 Q 55 73 60 70 Q 65 73 60 80 Q 53 85 50 80 Q 53 75 60 80 Q 67 85 70 80 Q 67 75 60 80 Q 55 87 60 90 Q 65 87 60 80" fill="rgb(255,200,0)" stroke="rgb(0,0,55)" stroke-width="1" transform="rotate(180,100,150)" /><path d="M 59 90 C 58 96 78 104 78 114 L 82 110 C 82 104 62 96 61 90 L 59 90" fill="rgb(255,200,0)" stroke="rgb(0,0,55)" stroke-width="0.5" /><path d="M 59 90 C 58 96 78 104 78 114 L 82 110 C 82 104 62 96 61 90 L 59 90" fill="rgb(255,200,0)" stroke="rgb(0,0,55)" stroke-width="0.5" transform="rotate(180,100,150)" /><path d="M 145 60 L 140 50 L 145 40 L 150 50 L 145 60 Q 135 115 145 115 Q 155 115 145 60 M 145 115 Q 140 120 145 125 Q 150 120 145 115 M 145 125 Q 140 170 145 170 Q 150 170 145 125" fill="rgb(255,200,0)" stroke="rgb(0,0,55)" stroke-width="1" /><path d="M 145 60 L 140 50 L 145 40 L 150 50 L 145 60 Q 135 115 145 115 Q 155 115 145 60 M 145 115 Q 140 120 145 125 Q 150 120 145 115 M 145 125 Q 140 170 145 170 Q 150 170 145 125" fill="rgb(255,200,0)" stroke="rgb(0,0,55)" stroke-width="1" transform="rotate(180,100,150)" /><path d="M 117 25 Q 109 50 92 75 L 87 75 Q 104 50 112 25" fill="rgb(0,0,0)" stroke="rgb(0,0,0)" stroke-width="1" /><path d="M 117 25 Q 109 50 92 75 L 87 75 Q 104 50 112 25" fill="rgb(0,0,0)" stroke="rgb(0,0,0)" stroke-width="1" transform="rotate(180,100,150)" /><path d="M 96 62 L 80 60 Q 94 40 80 25 L 112 25 Q 104 50 96 62" fill="rgb(255,200,0)" stroke="rgb(0,0,55)" stroke-width="1" /><path d="M 96 62 L 80 60 Q 94 40 80 25 L 112 25 Q 104 50 96 62" fill="rgb(255,200,0)" stroke="rgb(0,0,55)" stroke-width="1" transform="rotate(180,100,150)" /><path d="M 124 25 Q 126 35 134 45 M 128 25 Q 130 32 134 40 M 132 25 Q 132 27 134 32 M 124 25 Q 122 35 108 45 M 120 25 Q 118 33 108 38" fill="none" stroke="rgb(0,0,55)" stroke-width="1" /><path d="M 124 25 Q 126 35 134 45 M 128 25 Q 130 32 134 40 M 132 25 Q 132 27 134 32 M 124 25 Q 122 35 108 45 M 120 25 Q 118 33 108 38" fill="none" stroke="rgb(0,0,55)" stroke-width="1" transform="rotate(180,100,150)" /><path d="M 134 45 Q 147 95 130 70" fill="rgb(0,0,55)" stroke="rgb(0,0,55)" stroke-width="1" /><path d="M 134 45 Q 147 95 130 70" fill="rgb(0,0,55)" stroke="rgb(0,0,55)" stroke-width="1" transform="rotate(180,100,150)" /><path d="M 65 32.5 C 45.0 50 55.0 67.5 65 52.5 C 75.0 67.5 85.0 50 65 32.5 M 63.75 52.5 C 64.5 65.0 50.0 62.5 65 62.5 C 80.0 62.5 65.5 65.0 66.25 52.5" fill="rgb(0,0,0)" stroke="rgb(0,0,0)" stroke-width="1" /><path d="M 20 76 C 4 90 12 104 20 92 C 28 104 36 90 20 76 M 19.0 92 C 19.6 102 8 100 20 100 C 32 100 20.4 102 21.0 92" fill="rgb(0,0,0)" stroke="rgb(0,0,0)" stroke-width="1" /><path d="M 180 196 C 164 210 172 224 180 212 C 188 224 196 210 180 196 M 179.0 212 C 179.6 222 168 220 180 220 C 192 220 180.4 222 181.0 212" fill="rgb(0,0,0)" stroke="rgb(0,0,0)" stroke-width="1" transform="rotate(180,180,210)" /><path d="M 135 232.5 C 115.0 250 125.0 267.5 135 252.5 C 145.0 267.5 155.0 250 135 232.5 M 133.75 252.5 C 134.5 265.0 120.0 262.5 135 262.5 C 150.0 262.5 135.5 265.0 136.25 252.5" fill="rgb(0,0,0)" stroke="rgb(0,0,0)" stroke-width="1" transform="rotate(180,135,250)" /><path d="M 25 15 C 40 15 40 65 25 65 C 10 65 10 15 25 15 M 15 50 C 25 45 30 65 40 65" fill="none" stroke="rgb(0,0,0)" stroke-width="6" /><path d="M 175 235 C 190 235 190 285 175 285 C 160 285 160 235 175 235 M 165 270 C 175 265 180 285 190 285" fill="none" stroke="rgb(0,0,0)" stroke-width="6" transform="rotate(180,175,260)" /></g></svg>