<?xml version="1.0" encoding="utf-8" ?>
<svg baseProfile="full" height="300px" version="1.1" width="200px" xmlns="http://www.w3.org/2000/svg" xmlns:ev="http://www.w3.org/2001/xml-events" xmlns:xlink="http://www.w3.org/1999/xlink"><defs /><g><rect fill="rgb(255,213,153)" height="300px" stroke="rgb(0,0,0)" width="200px" x="0" y="0" /><path d="M 45 25 L 45 275 L 155 275 L 155 25 L 45 25" fill="rgb(255,233,173)" stroke="rgb(0,0,55)" stroke-width="1" /><path d="M 75 26 L 90 45 L 130 45 L 145 26 L 75 26" fill="rgb(255,200,0)" stroke="rgb(0,0,0)" stroke-width="2" /><path d="M 125 274 L 110 255 L 70 255 L 55 274 L 125 274" fill="rgb(255,200,0)" stroke="rgb(0,0,0)" stroke-width="2" /><path d="M 90 45 C 92 80 90 72 97 75" fill="none" stroke="rgb(0,0,55)" stroke-width="1" /><path d="M 90 45 C 92 80 90 72 97 75" fill="none" stroke="rgb(0,0,55)" stroke-width="1" transform="rotate(180,100,150)" /><path d="M 97 75 Q 100 90 102 74 Q 105 90 108 73 Q 111 90 114 73 M 97 75 Q 93 90 93 74 Q 87 90 91 67 Q 80 90 91 50" fill="none" stroke="rgb(0,0,55)" stroke-width="1" /><path d="M 97 75 Q 100 90 102 74 Q 105 90 108 73 Q 111 90 114 73 M 97 75 Q 93 90 93 74 Q 87 90 91 67 Q 80 90 91 50" fill="none" stroke="rgb(0,0,55)" stroke-width="1" transform="rotate(180,100,150)" /><path d="M 110 45 C 115 70 110 80 125 80 L 140 75 Q 145 70 135 65 L 130 45" fill="none" stroke="rgb(0,0,55)" stroke-width="1" /><path d="M 110 45 C 115 70 110 80 125 80 L 140 75 Q 145 70 135 65 L 130 45" fill="none" stroke="rgb(0,0,55)" stroke-width="1" transform="rotate(180,100,150)" /><path d="M 100 55 C 88 53 92 70 100 63" fill="none" stroke="rgb(0,0,55)" stroke-width="1" /><path d="M 100 55 C 88 53 92 70 100 63" fill="none" stroke="rgb(0,0,55)" stroke-width="1" transform="rotate(180,100,150)" /><path d="M 110 50 Q 106 55 102 50 Q 106 45 110 50 " fill="none" stroke="rgb(0,0,55)" stroke-width="1" /><path d="M 110 50 Q 106 55 102 50 Q 106 45 110 50 " fill="none" stroke="rgb(0,0,55)" stroke-width="1" transform="rotate(180,100,150)" /><path d="M 107 50 Q 106 55 105 50 Q 106 45 107 50 " fill="rgb(0,0,0)" stroke="rgb(0,0,55)" stroke-width="1" /><path d="M 107 50 Q 106 55 105 50 Q 106 45 107 50 " fill="rgb(0,0,0)" stroke="rgb(0,0,55)" stroke-width="1" transform="rotate(180,100,150)" /><path d="M 98 50 Q 94 55 90 50 Q 94 45 98 50 " fill="none" stroke="rgb(0,0,55)" stroke-width="1" /><path d="M 98 50 Q 94 55 90 50 Q 94 45 98 50 " fill="none" stroke="rgb(0,0,55)" stroke-width="1" transform="rotate(180,100,150)" /><path d="M 95 50 Q 94 55 93 50 Q 94 45 95 50 " fill="rgb(0,0,0)" stroke="rgb(0,0,55)" stroke-width="1" /><path d="M 95 50 Q 94 55 93 50 Q 94 45 95 50 " fill="rgb(0,0,0)" stroke="rgb(0,0,55)" stroke-width="1" transform="rotate(180,100,150)" /><path d="M 107 67 L 93 67" fill="rgb(0,0,0)" stroke="rgb(0,0,55)" stroke-width="1" /><path d="M 107 67 L 93 67" fill="rgb(0,0,0)" stroke="rgb(0,0,55)" stroke-width="1" transform="rotate(180,100,150)" /><path d="M 100 69 L 96 69" fill="rgb(0,0,0)" stroke="rgb(0,0,55)" stroke-width="1" /><path d="M 100 69 L 96 69" fill="rgb(0,0,0)" stroke="rgb(0,0,55)" stroke-width="1" transform="rotate(180,100,150)" /><path d="M 140 87 L 142 87 L 140 150 L 110 150 L 140 87" fill="rgb(0,0,55)" stroke="rgb(0,0,0)" stroke-width="2" /><path d="M 140 87 L 142 87 L 140 150 L 110 150 L 140 87" fill="rgb(0,0,55)" stroke="rgb(0,0,0)" stroke-width="2" transform="rotate(180,100,150)" /><path d="M 142 115 L 143 40 L 146 33 L 149 40 L 150 115 L 142 115 M 146 115 L 146 42" fill="none" stroke="rgb(0,0,55)" stroke-width="1" /><path d="M 142 115 L 143 40 L 146 33 L 149 40 L 150 115 L 142 115 M 146 115 L 146 42" fill="none" stroke="rgb(0,0,55)" stroke-width="1" transform="rotate(180,100,150)" /><path d="M 134 115 L 154 115 L 154 119 L 134 119" fill="rgb(255,200,0)" stroke="rgb(0,0,0)" stroke-width="2" /><path d="M 134 115 L 154 115 L 154 119 L 134 119" fill="rgb(255,200,0)" stroke="rgb(0,0,0)" stroke-width="2" transform="rotate(180,100,150)" /><path d="M 89 81 L 95 83 L 102 100 L 118 83 L 124 81 L 114 140 L 89 140 L 89 81" fill="rgb(255,200,0)" stroke="rgb(0,0,0)" stroke-width="2" /><path d="M 89 81 L 95 83 L 102 100 L 118 83 L 124 81 L 114 140 L 89 140 L 89 81" fill="rgb(255,200,0)" stroke="rgb(0,0,0)" stroke-width="2" transform="rotate(180,100,150)" /><path d="M 64 87 L 60 140 L 100 140 L 64 87" fill="rgb(0,0,55)" stroke="rgb(0,0,0)" stroke-width="2" /><path d="M 64 87 L 60 140 L 100 140 L 64 87" fill="rgb(0,0,55)" stroke="rgb(0,0,0)" stroke-width="2" transform="rotate(180,100,150)" /><path d="M 89 81 C 87 100 112 135 110 150 L 90 150 C 87 125 67 100 64 87 L 89 81" fill="rgb(0,0,0)" stroke="rgb(0,0,0)" stroke-width="2" transform="rotate(180,100,150)" /><path d="M 89 81 C 87 100 112 135 110 150 L 90 150 C 87 125 67 100 64 87 L 89 81" fill="rgb(0,0,0)" stroke="rgb(0,0,0)" stroke-width="2" /><path d="M 124 81 L 97 150 L 110 150 L 140 87 L 124 81" fill="rgb(155,0,0)" stroke="rgb(0,0,0)" stroke-width="2" /><path d="M 124 81 L 97 150 L 110 150 L 140 87 L 124 81" fill="rgb(155,0,0)" stroke="rgb(0,0,0)" stroke-width="2" transform="rotate(180,100,150)" /><path d="M 45 135 L 100 140 L 155 135 L 155 165 L 100 160 L 45 165 L 45 135" fill="rgb(255,200,0)" stroke="rgb(0,0,0)" stroke-width="1" /><path d="M 64 87 C 53 89 50 97 45 100 L 45 180 L 60 180 L 64 87" fill="rgb(155,0,0)" stroke="rgb(0,0,0)" stroke-width="1" /><path d="M 64 87 C 53 89 50 97 45 100 L 45 180 L 60 180 L 64 87" fill="rgb(155,0,0)" stroke="rgb(0,0,0)" stroke-width="1" transform="rotate(180,100,150)" /><path d="M 65 32.5 C 57.5 35.0 55.0 40.0 65 50 C 75.0 40.0 72.5 35.0 65 32.5 M 82.5 50 C 80.0 42.5 75.0 40.0 65 50 C 75.0 60.0 80.0 57.5 82.5 50 M 47.5 50 C 50.0 42.5 55.0 40.0 65 50 C 55.0 60.0 50.0 57.5 47.5 50 M 64.5 50 C 64.5 65.0 52.5 62.5 65 62.5 C 77.5 62.5 65.5 65.0 65.5 50" fill="rgb(0,0,0)" stroke="rgb(0,0,0)" stroke-width="1" /><path d="M 20 76 C 14 78 12 82 20 90 C 28 82 26 78 20 76 M 34 90 C 32 84 28 82 20 90 C 28 98 32 96 34 90 M 6 90 C 8 84 12 82 20 90 C 12 98 8 96 6 90 M 19.6 90 C 19.6 102 10 100 20 100 C 30 100 20.4 102 20.4 90" fill="rgb(0,0,0)" stroke="rgb(0,0,0)" stroke-width="1" /><path d="M 180 196 C 174 198 172 202 180 210 C 188 202 186 198 180 196 M 194 210 C 192 204 188 202 180 210 C 188 218 192 216 194 210 M 166 210 C 168 204 172 202 180 210 C 172 218 168 216 166 210 M 179.6 210 C 179.6 222 170 220 180 220 C 190 220 180.4 222 180.4 210" fill="rgb(0,0,0)" stroke="rgb(0,0,0)" stroke-width="1" transform="rotate(180,180,210)" /><path d="M 135 232.5 C 127.5 235.0 125.0 240.0 135 250 C 145.0 240.0 142.5 235.0 135 232.5 M 152.5 250 C 150.0 242.5 145.0 240.0 135 250 C 145.0 260.0 150.0 257.5 152.5 250 M 117.5 250 C 120.0 242.5 125.0 240.0 135 250 C 125.0 260.0 120.0 257.5 117.5 250 M 134.5 250 C 134.5 265.0 122.5 262.5 135 262.5 C 147.5 262.5 135.5 265.0 135.5 250" fill="rgb(0,0,0)" stroke="rgb(0,0,0)" stroke-width="1" transform="rotate(180,135,250)" /><path d="M 15 10 L 15 70 M 35 11.5 L 17.5 40 L 35 68.5" fill="none" stroke="rgb(0,0,0)" stroke-width="6" /><path d="M 165 230 L 165 290 M 185 231.5 L 167.5 260 L 185 288.5" fill="none" stroke="rgb(0,0,0)" stroke-width="6" transform="rotate(180,175,260)" /></g></svg>