<?xml version="1.0" encoding="utf-8" ?>
<svg baseProfile="full" height="300px" version="1.1" width="200px" xmlns="http://www.w3.org/2000/svg" xmlns:ev="http://www.w3.org/2001/xml-events" xmlns:xlink="http://www.w3.org/1999/xlink"><defs /><g><rect fill="rgb(255,213,153)" height="300px" stroke="rgb(155,0,0)" width="200px" x="0" y="0" /><path d="M 45 25 L 45 275 L 155 275 L 155 25 L 45 25" fill="rgb(255,233,173)" stroke="rgb(0,0,55)" stroke-width="1" /><path d="M 65 35.0 C 61.25 42.5 57.5 47.5 57.5 47.5 C 57.5 47.5 61.25 52.5 65 60.0 C 68.75 52.5 72.5 47.5 72.5 47.5 C 72.5 47.5 68.75 42.5 65 35.0" fill="rgb(155,0,0)" stroke="rgb(155,0,0)" stroke-width="1" /><path d="M 85 45 Q 85 49 87 53 L 78 70 L 85 73 L 83 78 L 85 80 L 83 83 L 85 85 L 87 90 M 115 90 C 75 90 127 90 110 45" fill="none" stroke="rgb(0,0,55)" stroke-width="1" /><path d="M 85 45 Q 85 49 87 53 L 78 70 L 85 73 L 83 78 L 85 80 L 83 83 L 85 85 L 87 90 M 115 90 C 75 90 127 90 110 45" fill="none" stroke="rgb(0,0,55)" stroke-width="1" transform="rotate(180,100,150)" /><path d="M 87 90 Q 81 102 69 100 Q 87 102 93 90 M 99 90 Q 93 102 81 100 M 105 90 Q 99 102 87 100" fill="none" stroke="rgb(0,0,55)" stroke-width="1" /><path d="M 87 90 Q 81 102 69 100 Q 87 102 93 90 M 99 90 Q 93 102 81 100 M 105 90 Q 99 102 87 100" fill="none" stroke="rgb(0,0,55)" stroke-width="1" transform="rotate(180,100,150)" /><path d="M 125 45 C 118 95 147 90 135 110 Q 120 103 97 100" fill="none" stroke="rgb(0,0,55)" stroke-width="1" /><path d="M 125 45 C 118 95 147 90 135 110 Q 120 103 97 100" fill="none" stroke="rgb(0,0,55)" stroke-width="1" transform="rotate(180,100,150)" /><path d="M 90 50 L 100 55 L 90 60" fill="none" stroke="rgb(0,0,55)" stroke-width="1" /><path d="M 90 50 L 100 55 L 90 60" fill="none" stroke="rgb(0,0,55)" stroke-width="1" transform="rotate(180,100,150)" /><path d="M 92 51 Q 89 55 92 59 Q 95 55 92 51" fill="rgb(0,0,55)" stroke="rgb(0,0,55)" stroke-width="1" /><path d="M 92 51 Q 89 55 92 59 Q 95 55 92 51" fill="rgb(0,0,55)" stroke="rgb(0,0,55)" transform="rotate(180,100,150)" /><path d="M 84 79 L 93 81 L 84 81" fill="none" stroke="rgb(0,0,55)" stroke-width="2" /><path d="M 84 79 L 93 81 L 84 81" fill="none" stroke="rgb(0,0,55)" stroke-width="2" transform="rotate(180,100,150)" /><path d="M 87 75 C 89 72 93 80 100 77 Q 102 75 100 74" fill="none" stroke="rgb(0,0,55)" stroke-width="1" /><path d="M 87 75 C 89 72 93 80 100 77 Q 102 75 100 74" fill="none" stroke="rgb(0,0,55)" stroke-width="1" transform="rotate(180,100,150)" /><path d="M 70 26 L 85 45 L 125 45 L 140 26 L 70 26" fill="rgb(255,200,0)" stroke="rgb(0,0,0)" stroke-width="2" /><path d="M 70 26 L 85 45 L 125 45 L 140 26 L 70 26" fill="rgb(255,200,0)" stroke="rgb(0,0,0)" stroke-width="2" transform="rotate(180,100,150)" /><path d="M 83 42 L 85 45 L 125 45 L 127 42 L 83 42" fill="rgb(155,0,0)" stroke="rgb(0,0,0)" stroke-width="2" /><path d="M 83 42 L 85 45 L 125 45 L 127 42 L 83 42" fill="rgb(155,0,0)" stroke="rgb(0,0,0)" stroke-width="2" transform="rotate(180,100,150)" /><path d="M 154 36 L 146 46 L 146 150 L 154 150 L 154 36" fill="rgb(155,0,0)" stroke="rgb(0,0,0)" stroke-width="1" /><path d="M 154 36 L 146 46 L 146 150 L 154 150 L 154 36" fill="rgb(155,0,0)" stroke="rgb(0,0,0)" stroke-width="1" transform="rotate(180,100,150)" /><path d="M 154 43 L 150 49 L 150 150 L 154 150 L 154 43" fill="rgb(0,0,0)" stroke="rgb(0,0,0)" stroke-width="1" /><path d="M 154 43 L 150 49 L 150 150 L 154 150 L 154 43" fill="rgb(0,0,0)" stroke="rgb(0,0,0)" stroke-width="1" transform="rotate(180,100,150)" /><path d="M 146 55 Q 140 50 135 40 Q 120 60 135 80 Q 140 67 146 60" fill="rgb(255,200,0)" stroke="rgb(0,0,0)" stroke-width="1" transform="rotate(180,100,150)" /><path d="M 146 55 Q 140 50 135 40 Q 120 60 135 80 Q 140 67 146 60" fill="rgb(255,200,0)" stroke="rgb(0,0,0)" stroke-width="1" /><path d="M 45 110 L 85 102 Q 100 112 115 105 L 108 158 Q 70 164 45 110" fill="rgb(0,0,55)" stroke="rgb(0,0,0)" stroke-width="2" /><path d="M 45 110 L 85 102 Q 100 112 115 105 L 108 158 Q 70 164 45 110" fill="rgb(0,0,55)" stroke="rgb(0,0,0)" stroke-width="2" transform="rotate(180,100,150)" /><path d="M 135 110 Q 145 110 154 130 L 154 190 Q 80 150 135 110" fill="rgb(155,0,0)" stroke="rgb(0,0,0)" stroke-width="2" /><path d="M 135 110 Q 145 110 154 130 L 154 190 Q 80 150 135 110" fill="rgb(155,0,0)" stroke="rgb(0,0,0)" stroke-width="2" transform="rotate(180,100,150)" /><path d="M 135 110 Q 120 155 131 158 Q 120 155 110 158 L 114 103" fill="rgb(255,200,0)" stroke="rgb(0,0,0)" stroke-width="2" /><path d="M 135 110 Q 120 155 131 158 Q 120 155 110 158 L 114 103" fill="rgb(255,200,0)" stroke="rgb(0,0,0)" stroke-width="2" transform="rotate(180,100,150)" /><path d="M 20 78 C 17.0 84 14 88 14 88 C 14 88 17.0 92 20 98 C 23.0 92 26 88 26 88 C 26 88 23.0 84 20 78" fill="rgb(155,0,0)" stroke="rgb(155,0,0)" stroke-width="1" /><path d="M 180 198 C 177.0 204 174 208 174 208 C 174 208 177.0 212 180 218 C 183.0 212 186 208 186 208 C 186 208 183.0 204 180 198" fill="rgb(155,0,0)" stroke="rgb(155,0,0)" stroke-width="1" transform="rotate(180,180,210)" /><path d="M 135 235.0 C 131.25 242.5 127.5 247.5 127.5 247.5 C 127.5 247.5 131.25 252.5 135 260.0 C 138.75 252.5 142.5 247.5 142.5 247.5 C 142.5 247.5 138.75 242.5 135 235.0" fill="rgb(155,0,0)" stroke="rgb(155,0,0)" stroke-width="1" transform="rotate(180,135,250)" /><path d="M 15 10 L 15 70 M 35 11.5 L 17.5 40 L 35 68.5" fill="none" stroke="rgb(155,0,0)" stroke-width="6" /><path d="M 165 230 L 165 290 M 185 231.5 L 167.5 260 L 185 288.5" fill="none" stroke="rgb(155,0,0)" stroke-width="6" transform="rotate(180,175,260)" /></g></svg>