<?xml version="1.0" encoding="utf-8" ?>
<svg baseProfile="full" height="300px" version="1.1" width="200px" xmlns="http://www.w3.org/2000/svg" xmlns:ev="http://www.w3.org/2001/xml-events" xmlns:xlink="http://www.w3.org/1999/xlink"><defs /><g><rect fill="rgb(255,213,153)" height="300px" stroke="rgb(155,0,0)" width="200px" x="0" y="0" /><path d="M 45 25 L 45 275 L 155 275 L 155 25 L 45 25" fill="rgb(255,233,173)" stroke="rgb(0,0,55)" stroke-width="1" /><path d="M 75 26 L 90 45 L 130 45 L 145 26 L 75 26" fill="rgb(255,200,0)" stroke="rgb(0,0,0)" stroke-width="2" /><path d="M 125 274 L 110 255 L 70 255 L 55 274 L 125 274" fill="rgb(255,200,0)" stroke="rgb(0,0,0)" stroke-width="2" /><path d="M 90 45 C 92 80 90 72 97 75" fill="none" stroke="rgb(0,0,55)" stroke-width="1" /><path d="M 90 45 C 92 80 90 72 97 75" fill="none" stroke="rgb(0,0,55)" stroke-width="1" transform="rotate(180,100,150)" /><path d="M 97 75 Q 100 90 102 74 Q 105 90 108 73 Q 111 90 114 73 M 97 75 Q 93 90 93 74 Q 87 90 91 67 Q 80 90 91 50" fill="none" stroke="rgb(0,0,55)" stroke-width="1" /><path d="M 97 75 Q 100 90 102 74 Q 105 90 108 73 Q 111 90 114 73 M 97 75 Q 93 90 93 74 Q 87 90 91 67 Q 80 90 91 50" fill="none" stroke="rgb(0,0,55)" stroke-width="1" transform="rotate(180,100,150)" /><path d="M 110 45 C 115 70 110 80 125 80 L 140 75 Q 145 70 135 65 L 130 45" fill="none" stroke="rgb(0,0,55)" stroke-width="1" /><path d="M 110 45 C 115 70 110 80 125 80 L 140 75 Q 145 70 135 65 L 130 45" fill="none" stroke="rgb(0,0,55)" stroke-width="1" transform="rotate(180,100,150)" /><path d="M 100 55 C 88 53 92 70 100 63" fill="none" stroke="rgb(0,0,55)" stroke-width="1" /><path d="M 100 55 C 88 53 92 70 100 63" fill="none" stroke="rgb(0,0,55)" stroke-width="1" transform="rotate(180,100,150)" /><path d="M 110 50 Q 106 55 102 50 Q 106 45 110 50 " fill="none" stroke="rgb(0,0,55)" stroke-width="1" /><path d="M 110 50 Q 106 55 102 50 Q 106 45 110 50 " fill="none" stroke="rgb(0,0,55)" stroke-width="1" transform="rotate(180,100,150)" /><path d="M 107 50 Q 106 55 105 50 Q 106 45 107 50 " fill="rgb(0,0,0)" stroke="rgb(0,0,55)" stroke-width="1" /><path d="M 107 50 Q 106 55 105 50 Q 106 45 107 50 " fill="rgb(0,0,0)" stroke="rgb(0,0,55)" stroke-width="1" transform="rotate(180,100,150)" /><path d="M 98 50 Q 94 55 90 50 Q 94 45 98 50 " fill="none" stroke="rgb(0,0,55)" stroke-width="1" /><path d="M 98 50 Q 94 55 90 50 Q 94 45 98 50 " fill="none" stroke="rgb(0,0,55)" stroke-width="1" transform="rotate(180,100,150)" /><path d="M 95 50 Q 94 55 93 50 Q 94 45 95 50 " fill="rgb(0,0,0)" stroke="rgb(0,0,55)" stroke-width="1" /><path d="M 95 50 Q 94 55 93 50 Q 94 45 95 50 " fill="rgb(0,0,0)" stroke="rgb(0,0,55)" stroke-width="1" transform="rotate(180,100,150)" /><path d="M 107 67 L 93 67" fill="rgb(0,0,0)" stroke="rgb(0,0,55)" stroke-width="1" /><path d="M 107 67 L 93 67" fill="rgb(0,0,0)" stroke="rgb(0,0,55)" stroke-width="1" transform="rotate(180,100,150)" /><path d="M 100 69 L 96 69" fill="rgb(0,0,0)" stroke="rgb(0,0,55)" stroke-width="1" /><path d="M 100 69 L 96 69" fill="rgb(0,0,0)" stroke="rgb(0,0,55)" stroke-width="1" transform="rotate(180,100,150)" /><path d="M 155 150 L 155 100 Q 136 85 132 81 L 112 79 Q 100 95 88 79 L 68 81 Q 63 88 45 100 L 45 150 L 155 150" fill="rgb(155,0,0)" stroke="rgb(0,0,55)" stroke-width="1" /><path d="M 155 150 L 155 100 Q 136 85 132 81 L 112 79 Q 100 95 88 79 L 68 81 Q 63 88 45 100 L 45 150 L 155 150" fill="rgb(155,0,0)" stroke="rgb(0,0,55)" stroke-width="1" transform="rotate(180,100,150)" /><path d="M 45 125 L 120 105 L 120 115 L 45 150" fill="rgb(255,200,0)" stroke="rgb(0,0,55)" stroke-width="1" /><path d="M 45 125 L 120 105 L 120 115 L 45 150" fill="rgb(255,200,0)" stroke="rgb(0,0,55)" stroke-width="1" transform="rotate(180,100,150)" /><path d="M 112 79 L 132 81 Q 100 150 132 218 L 110 222 Q 100 150 112 79" fill="rgb(0,0,55)" stroke="rgb(0,0,55)" stroke-width="1" /><path d="M 112 79 L 132 81 Q 100 150 132 218 L 110 222 Q 100 150 112 79" fill="rgb(0,0,55)" stroke="rgb(0,0,55)" stroke-width="1" transform="rotate(180,100,150)" /><path d="M 96 150 Q 100 135 104 150 Q 100 165 96 150" fill="rgb(0,0,55)" stroke="rgb(0,0,55)" stroke-width="1" /><path d="M 135 130 Q 120 120 135 110 Q 150 120 135 130 L 135 150" fill="rgb(255,200,0)" stroke="rgb(0,0,55)" stroke-width="1" /><path d="M 135 130 Q 120 120 135 110 Q 150 120 135 130 L 135 150" fill="rgb(255,200,0)" stroke="rgb(0,0,55)" stroke-width="1" transform="rotate(180,100,150)" /><path d="M 142 65 L 142 40 L 150 40 L 150 65 Q 152 78 142 65 M 150 60 L 155 60 M 150 44 L 155 44" fill="rgb(255,200,0)" stroke="rgb(0,0,55)" stroke-width="2" /><path d="M 142 65 L 142 40 L 150 40 L 150 65 Q 152 78 142 65 M 150 60 L 155 60 M 150 44 L 155 44" fill="rgb(255,200,0)" stroke="rgb(0,0,55)" stroke-width="2" transform="rotate(180,100,150)" /><path d="M 142 58 L 134 58 M 142 52 L 132 52 M 142 46 L 130 46" fill="none" stroke="rgb(0,0,55)" stroke-width="2" /><path d="M 142 58 L 134 58 M 142 52 L 132 52 M 142 46 L 130 46" fill="none" stroke="rgb(0,0,55)" stroke-width="2" transform="rotate(180,100,150)" /><path d="M 65 40.0 C 55.0 25.0 45.0 47.5 65 60.0 C 85.0 47.5 75.0 25.0 65 40.0" fill="rgb(155,0,0)" stroke="rgb(155,0,0)" stroke-width="1" /><path d="M 20 82 C 12 70 4 88 20 98 C 36 88 28 70 20 82" fill="rgb(155,0,0)" stroke="rgb(155,0,0)" stroke-width="1" /><path d="M 180 202 C 172 190 164 208 180 218 C 196 208 188 190 180 202" fill="rgb(155,0,0)" stroke="rgb(155,0,0)" stroke-width="1" transform="rotate(180,180,210)" /><path d="M 135 240.0 C 125.0 225.0 115.0 247.5 135 260.0 C 155.0 247.5 145.0 225.0 135 240.0" fill="rgb(155,0,0)" stroke="rgb(155,0,0)" stroke-width="1" transform="rotate(180,135,250)" /><path d="M 15 10 L 15 70 M 35 11.5 L 17.5 40 L 35 68.5" fill="none" stroke="rgb(155,0,0)" stroke-width="6" /><path d="M 165 230 L 165 290 M 185 231.5 L 167.5 260 L 185 288.5" fill="none" stroke="rgb(155,0,0)" stroke-width="6" transform="rotate(180,175,260)" /></g></svg>