<?xml version="1.0" encoding="utf-8" ?>
<svg baseProfile="full" height="300px" version="1.1" width="200px" xmlns="http://www.w3.org/2000/svg" xmlns:ev="http://www.w3.org/2001/xml-events" xmlns:xlink="http://www.w3.org/1999/xlink"><defs /><g><rect fill="rgb(255,213,153)" height="300px" stroke="rgb(0,0,0)" width="200px" x="0" y="0" /><path d="M 45 25 L 45 275 L 155 275 L 155 25 L 45 25" fill="rgb(255,233,173)" stroke="rgb(0,0,55)" stroke-width="1" /><path d="M 75 26 L 90 45 L 130 45 L 145 26 L 75 26" fill="rgb(255,200,0)" stroke="rgb(0,0,0)" stroke-width="2" /><path d="M 125 274 L 110 255 L 70 255 L 55 274 L 125 274" fill="rgb(255,200,0)" stroke="rgb(0,0,0)" stroke-width="2" /><path d="M 130 45 C 128 80 130 72 123 75" fill="none" stroke="rgb(0,0,55)" stroke-width="1" /><path d="M 130 45 C 128 80 130 72 123 75" fill="none" stroke="rgb(0,0,55)" stroke-width="1" transform="rotate(180,100,150)" /><path d="M 110 45 C 105 70 110 80 95 80 L 80 75 Q 75 70 85 65 L 90 45" fill="none" stroke="rgb(0,0,55)" stroke-width="1" /><path d="M 110 45 C 105 70 110 80 95 80 L 80 75 Q 75 70 85 65 L 90 45" fill="none" stroke="rgb(0,0,55)" stroke-width="1" transform="rotate(180,100,150)" /><path d="M 123 75 Q 120 90 118 74 Q 115 90 112 73 Q 109 90 106 73 M 123 75 Q 127 90 127 74 Q 133 90 129 67 Q 140 90 129 50" fill="none" stroke="rgb(0,0,55)" stroke-width="1" /><path d="M 123 75 Q 120 90 118 74 Q 115 90 112 73 Q 109 90 106 73 M 123 75 Q 127 90 127 74 Q 133 90 129 67 Q 140 90 129 50" fill="none" stroke="rgb(0,0,55)" stroke-width="1" transform="rotate(180,100,150)" /><path d="M 46 115 L 46 160 L 100 160 L 100 115 L 46 115" fill="rgb(255,200,0)" stroke="rgb(0,0,0)" stroke-width="2" /><path d="M 46 115 L 46 160 L 100 160 L 100 115 L 46 115" fill="rgb(255,200,0)" stroke="rgb(0,0,0)" stroke-width="2" transform="rotate(180,100,150)" /><path d="M 101 79 Q 118 97 123 112 L 123 75 Q 120 77 154 140 Q 118 163 87 128 Q 72 100 97 80" fill="rgb(0,0,55)" stroke="rgb(0,0,55)" stroke-width="1" /><path d="M 101 79 Q 118 97 123 112 L 123 75 Q 120 77 154 140 Q 118 163 87 128 Q 72 100 97 80" fill="rgb(0,0,55)" stroke="rgb(0,0,55)" stroke-width="1" transform="rotate(180,100,150)" /><path d="M 142 115 L 143 40 L 146 33 L 149 40 L 150 115 L 142 115 M 146 115 L 146 42" fill="none" stroke="rgb(0,0,55)" stroke-width="1" /><path d="M 142 115 L 143 40 L 146 33 L 149 40 L 150 115 L 142 115 M 146 115 L 146 42" fill="none" stroke="rgb(0,0,55)" stroke-width="1" transform="rotate(180,100,150)" /><path d="M 134 115 L 154 115 L 154 119 L 134 119" fill="rgb(255,200,0)" stroke="rgb(0,0,0)" stroke-width="2" /><path d="M 134 115 L 154 115 L 154 119 L 134 119" fill="rgb(255,200,0)" stroke="rgb(0,0,0)" stroke-width="2" transform="rotate(180,100,150)" /><path d="M 97 80 L 77 83 L 46 115 L 100 150 L 112 119 Z" fill="rgb(155,0,0)" stroke="rgb(0,0,0)" stroke-width="2" /><path d="M 97 80 L 77 83 L 46 115 L 100 150 L 112 119 Z" fill="rgb(155,0,0)" stroke="rgb(0,0,0)" stroke-width="2" transform="rotate(180,100,150)" /><path d="M 120 55 C 132 53 128 70 120 63" fill="none" stroke="rgb(0,0,55)" stroke-width="1" /><path d="M 120 55 C 132 53 128 70 120 63" fill="none" stroke="rgb(0,0,55)" stroke-width="1" transform="rotate(180,100,150)" /><path d="M 110 50 Q 114 55 118 50 Q 114 45 110 50 " fill="none" stroke="rgb(0,0,55)" stroke-width="1" /><path d="M 110 50 Q 114 55 118 50 Q 114 45 110 50 " fill="none" stroke="rgb(0,0,55)" stroke-width="1" transform="rotate(180,100,150)" /><path d="M 113 50 Q 114 55 115 50 Q 114 45 113 50 " fill="rgb(0,0,0)" stroke="rgb(0,0,55)" stroke-width="1" /><path d="M 113 50 Q 114 55 115 50 Q 114 45 113 50 " fill="rgb(0,0,0)" stroke="rgb(0,0,55)" stroke-width="1" transform="rotate(180,100,150)" /><path d="M 122 50 Q 126 55 130 50 Q 126 45 122 50 " fill="none" stroke="rgb(0,0,55)" stroke-width="1" /><path d="M 122 50 Q 126 55 130 50 Q 126 45 122 50 " fill="none" stroke="rgb(0,0,55)" stroke-width="1" transform="rotate(180,100,150)" /><path d="M 125 50 Q 126 55 127 50 Q 126 45 125 50 " fill="rgb(0,0,0)" stroke="rgb(0,0,55)" stroke-width="1" /><path d="M 125 50 Q 126 55 127 50 Q 126 45 125 50 " fill="rgb(0,0,0)" stroke="rgb(0,0,55)" stroke-width="1" transform="rotate(180,100,150)" /><path d="M 113 67 L 127 67" fill="rgb(0,0,0)" stroke="rgb(0,0,55)" stroke-width="1" /><path d="M 113 67 L 127 67" fill="rgb(0,0,0)" stroke="rgb(0,0,55)" stroke-width="1" transform="rotate(180,100,150)" /><path d="M 120 69 L 124 69" fill="rgb(0,0,0)" stroke="rgb(0,0,55)" stroke-width="1" /><path d="M 120 69 L 124 69" fill="rgb(0,0,0)" stroke="rgb(0,0,55)" stroke-width="1" transform="rotate(180,100,150)" /><path d="M 65 32.5 C 45.0 50 55.0 67.5 65 52.5 C 75.0 67.5 85.0 50 65 32.5 M 63.75 52.5 C 64.5 65.0 50.0 62.5 65 62.5 C 80.0 62.5 65.5 65.0 66.25 52.5" fill="rgb(0,0,0)" stroke="rgb(0,0,0)" stroke-width="1" /><path d="M 20 76 C 4 90 12 104 20 92 C 28 104 36 90 20 76 M 19.0 92 C 19.6 102 8 100 20 100 C 32 100 20.4 102 21.0 92" fill="rgb(0,0,0)" stroke="rgb(0,0,0)" stroke-width="1" /><path d="M 180 196 C 164 210 172 224 180 212 C 188 224 196 210 180 196 M 179.0 212 C 179.6 222 168 220 180 220 C 192 220 180.4 222 181.0 212" fill="rgb(0,0,0)" stroke="rgb(0,0,0)" stroke-width="1" transform="rotate(180,180,210)" /><path d="M 135 232.5 C 115.0 250 125.0 267.5 135 252.5 C 145.0 267.5 155.0 250 135 232.5 M 133.75 252.5 C 134.5 265.0 120.0 262.5 135 262.5 C 150.0 262.5 135.5 265.0 136.25 252.5" fill="rgb(0,0,0)" stroke="rgb(0,0,0)" stroke-width="1" transform="rotate(180,135,250)" /><path d="M 15 10 L 15 70 M 35 11.5 L 17.5 40 L 35 68.5" fill="none" stroke="rgb(0,0,0)" stroke-width="6" /><path d="M 165 230 L 165 290 M 185 231.5 L 167.5 260 L 185 288.5" fill="none" stroke="rgb(0,0,0)" stroke-width="6" transform="rotate(180,175,260)" /></g></svg>