<?xml version="1.0" encoding="utf-8" ?>
<svg baseProfile="full" height="300px" version="1.1" width="200px" xmlns="http://www.w3.org/2000/svg" xmlns:ev="http://www.w3.org/2001/xml-events" xmlns:xlink="http://www.w3.org/1999/xlink"><defs /><g><rect fill="rgb(255,213,153)" height="300px" stroke="rgb(0,0,0)" width="200px" x="0" y="0" /><path d="M 20 76 C 14 78 12 82 20 90 C 28 82 26 78 20 76 M 34 90 C 32 84 28 82 20 90 C 28 98 32 96 34 90 M 6 90 C 8 84 12 82 20 90 C 12 98 8 96 6 90 M 19.6 90 C 19.6 102 10 100 20 100 C 30 100 20.4 102 20.4 90" fill="rgb(0,0,0)" stroke="rgb(0,0,0)" stroke-width="1" /><path d="M 180 76 C 174 78 172 82 180 90 C 188 82 186 78 180 76 M 194 90 C 192 84 188 82 180 90 C 188 98 192 96 194 90 M 166 90 C 168 84 172 82 180 90 C 172 98 168 96 166 90 M 179.6 90 C 179.6 102 170 100 180 100 C 190 100 180.4 102 180.4 90" fill="rgb(0,0,0)" stroke="rgb(0,0,0)" stroke-width="1" /><path d="M 20 196 C 14 198 12 202 20 210 C 28 202 26 198 20 196 M 34 210 C 32 204 28 202 20 210 C 28 218 32 216 34 210 M 6 210 C 8 204 12 202 20 210 C 12 218 8 216 6 210 M 19.6 210 C 19.6 222 10 220 20 220 C 30 220 20.4 222 20.4 210" fill="rgb(0,0,0)" stroke="rgb(0,0,0)" stroke-width="1" transform="rotate(180,20,210)" /><path d="M 180 196 C 174 198 172 202 180 210 C 188 202 186 198 180 196 M 194 210 C 192 204 188 202 180 210 C 188 218 192 216 194 210 M 166 210 C 168 204 172 202 180 210 C 172 218 168 216 166 210 M 179.6 210 C 179.6 222 170 220 180 220 C 190 220 180.4 222 180.4 210" fill="rgb(0,0,0)" stroke="rgb(0,0,0)" stroke-width="1" transform="rotate(180,180,210)" /><path d="M 100 80 C 70 90 60 110 100 150 C 140 110 130 90 100 80 M 170 150 C 160 120 140 110 100 150 C 140 190 160 180 170 150 M 30 150 C 40 120 60 110 100 150 C 60 190 40 180 30 150 M 98.0 150 C 98.0 210 50 200 100 200 C 150 200 102.0 210 102.0 150" fill="rgb(0,0,0)" stroke="rgb(0,0,0)" stroke-width="1" /><path d="M 15 67.5 L 25 12.5 L 35 67.5 M 20 45 L 30 45" fill="none" stroke="rgb(0,0,0)" stroke-width="6" /><path d="M 165 67.5 L 175 12.5 L 185 67.5 M 170 45 L 180 45" fill="none" stroke="rgb(0,0,0)" stroke-width="6" /><path d="M 15 287.5 L 25 232.5 L 35 287.5 M 20 265 L 30 265" fill="none" stroke="rgb(0,0,0)" stroke-width="6" transform="rotate(180,25,260)" /><path d="M 165 287.5 L 175 232.5 L 185 287.5 M 170 265 L 180 265" fill="none" stroke="rgb(0,0,0)" stroke-width="6" transform="rotate(180,175,260)" /></g></svg>