<?xml version="1.0" encoding="utf-8" ?>
<svg baseProfile="full" height="300px" version="1.1" width="200px" xmlns="http://www.w3.org/2000/svg" xmlns:ev="http://www.w3.org/2001/xml-events" xmlns:xlink="http://www.w3.org/1999/xlink"><defs /><g><rect fill="rgb(255,213,153)" height="300px" stroke="rgb(155,0,0)" width="200px" x="0" y="0" /><path d="M 20 78 C 17.0 84 14 88 14 88 C 14 88 17.0 92 20 98 C 23.0 92 26 88 26 88 C 26 88 23.0 84 20 78" fill="rgb(155,0,0)" stroke="rgb(155,0,0)" stroke-width="1" /><path d="M 180 78 C 177.0 84 174 88 174 88 C 174 88 177.0 92 180 98 C 183.0 92 186 88 186 88 C 186 88 183.0 84 180 78" fill="rgb(155,0,0)" stroke="rgb(155,0,0)" stroke-width="1" /><path d="M 20 198 C 17.0 204 14 208 14 208 C 14 208 17.0 212 20 218 C 23.0 212 26 208 26 208 C 26 208 23.0 204 20 198" fill="rgb(155,0,0)" stroke="rgb(155,0,0)" stroke-width="1" transform="rotate(180,20,210)" /><path d="M 180 198 C 177.0 204 174 208 174 208 C 174 208 177.0 212 180 218 C 183.0 212 186 208 186 208 C 186 208 183.0 204 180 198" fill="rgb(155,0,0)" stroke="rgb(155,0,0)" stroke-width="1" transform="rotate(180,180,210)" /><path d="M 100 90 C 85.0 120 70 140 70 140 C 70 140 85.0 160 100 190 C 115.0 160 130 140 130 140 C 130 140 115.0 120 100 90" fill="rgb(155,0,0)" stroke="rgb(155,0,0)" stroke-width="1" /><path d="M 15 67.5 L 25 12.5 L 35 67.5 M 20 45 L 30 45" fill="none" stroke="rgb(155,0,0)" stroke-width="6" /><path d="M 165 67.5 L 175 12.5 L 185 67.5 M 170 45 L 180 45" fill="none" stroke="rgb(155,0,0)" stroke-width="6" /><path d="M 15 287.5 L 25 232.5 L 35 287.5 M 20 265 L 30 265" fill="none" stroke="rgb(155,0,0)" stroke-width="6" transform="rotate(180,25,260)" /><path d="M 165 287.5 L 175 232.5 L 185 287.5 M 170 265 L 180 265" fill="none" stroke="rgb(155,0,0)" stroke-width="6" transform="rotate(180,175,260)" /></g></svg>