<?xml version="1.0" encoding="utf-8" ?>
<svg baseProfile="full" height="300px" version="1.1" width="200px" xmlns="http://www.w3.org/2000/svg" xmlns:ev="http://www.w3.org/2001/xml-events" xmlns:xlink="http://www.w3.org/1999/xlink"><defs /><g><rect fill="rgb(255,213,153)" height="300px" stroke="rgb(155,0,0)" width="200px" x="0" y="0" /><path d="M 20 82 C 12 70 4 88 20 98 C 36 88 28 70 20 82" fill="rgb(155,0,0)" stroke="rgb(155,0,0)" stroke-width="1" /><path d="M 180 82 C 172 70 164 88 180 98 C 196 88 188 70 180 82" fill="rgb(155,0,0)" stroke="rgb(155,0,0)" stroke-width="1" /><path d="M 20 202 C 12 190 4 208 20 218 C 36 208 28 190 20 202" fill="rgb(155,0,0)" stroke="rgb(155,0,0)" stroke-width="1" transform="rotate(180,20,210)" /><path d="M 180 202 C 172 190 164 208 180 218 C 196 208 188 190 180 202" fill="rgb(155,0,0)" stroke="rgb(155,0,0)" stroke-width="1" transform="rotate(180,180,210)" /><path d="M 100 110 C 60 50 20 140 100 190 C 180 140 140 50 100 110" fill="rgb(155,0,0)" stroke="rgb(155,0,0)" stroke-width="1" /><path d="M 15 67.5 L 25 12.5 L 35 67.5 M 20 45 L 30 45" fill="none" stroke="rgb(155,0,0)" stroke-width="6" /><path d="M 165 67.5 L 175 12.5 L 185 67.5 M 170 45 L 180 45" fill="none" stroke="rgb(155,0,0)" stroke-width="6" /><path d="M 15 287.5 L 25 232.5 L 35 287.5 M 20 265 L 30 265" fill="none" stroke="rgb(155,0,0)" stroke-width="6" transform="rotate(180,25,260)" /><path d="M 165 287.5 L 175 232.5 L 185 287.5 M 170 265 L 180 265" fill="none" stroke="rgb(155,0,0)" stroke-width="6" transform="rotate(180,175,260)" /></g></svg>