<?xml version="1.0" encoding="utf-8" ?>
<svg baseProfile="full" height="300px" version="1.1" width="200px" xmlns="http://www.w3.org/2000/svg" xmlns:ev="http://www.w3.org/2001/xml-events" xmlns:xlink="http://www.w3.org/1999/xlink"><defs /><g><rect fill="rgb(255,213,153)" height="300px" stroke="rgb(0,0,0)" width="200px" x="0" y="0" /><path d="M 20 76 C 4 90 12 104 20 92 C 28 104 36 90 20 76 M 19.0 92 C 19.6 102 8 100 20 100 C 32 100 20.4 102 21.0 92" fill="rgb(0,0,0)" stroke="rgb(0,0,0)" stroke-width="1" /><path d="M 180 76 C 164 90 172 104 180 92 C 188 104 196 90 180 76 M 179.0 92 C 179.6 102 168 100 180 100 C 192 100 180.4 102 181.0 92" fill="rgb(0,0,0)" stroke="rgb(0,0,0)" stroke-width="1" /><path d="M 20 196 C 4 210 12 224 20 212 C 28 224 36 210 20 196 M 19.0 212 C 19.6 222 8 220 20 220 C 32 220 20.4 222 21.0 212" fill="rgb(0,0,0)" stroke="rgb(0,0,0)" stroke-width="1" transform="rotate(180,20,210)" /><path d="M 180 196 C 164 210 172 224 180 212 C 188 224 196 210 180 196 M 179.0 212 C 179.6 222 168 220 180 220 C 192 220 180.4 222 181.0 212" fill="rgb(0,0,0)" stroke="rgb(0,0,0)" stroke-width="1" transform="rotate(180,180,210)" /><path d="M 100 52 C -12 150 44 248 100 164 C 156 248 212 150 100 52 M 93.0 164 C 97.2 234 16 220 100 220 C 184 220 102.8 234 107.0 164" fill="rgb(0,0,0)" stroke="rgb(0,0,0)" stroke-width="1" /><path d="M 100 66 C 4 150 52 234 100 162 C 148 234 196 150 100 66 M 94.0 162 C 97.6 222 28 210 100 210 C 172 210 102.4 222 106.0 162" fill="none" stroke="rgb(255,213,153)" stroke-width="3" /><path d="M 15 67.5 L 25 12.5 L 35 67.5 M 20 45 L 30 45" fill="none" stroke="rgb(0,0,0)" stroke-width="6" /><path d="M 165 67.5 L 175 12.5 L 185 67.5 M 170 45 L 180 45" fill="none" stroke="rgb(0,0,0)" stroke-width="6" /><path d="M 15 287.5 L 25 232.5 L 35 287.5 M 20 265 L 30 265" fill="none" stroke="rgb(0,0,0)" stroke-width="6" transform="rotate(180,25,260)" /><path d="M 165 287.5 L 175 232.5 L 185 287.5 M 170 265 L 180 265" fill="none" stroke="rgb(0,0,0)" stroke-width="6" transform="rotate(180,175,260)" /></g></svg>