<?xml version="1.0" encoding="utf-8" ?>
<svg baseProfile="full" height="300px" version="1.1" width="200px" xmlns="http://www.w3.org/2000/svg" xmlns:ev="http://www.w3.org/2001/xml-events" xmlns:xlink="http://www.w3.org/1999/xlink"><defs /><g><rect fill="rgb(255,213,153)" height="300px" stroke="rgb(0,0,0)" width="200px" x="0" y="0" /><path d="M 100 22 C 88 26 84 34 100 50 C 116 34 112 26 100 22 M 128 50 C 124 38 116 34 100 50 C 116 66 124 62 128 50 M 72 50 C 76 38 84 34 100 50 C 84 66 76 62 72 50 M 99.2 50 C 99.2 74 80 70 100 70 C 120 70 100.8 74 100.8 50" fill="rgb(0,0,0)" stroke="rgb(0,0,0)" stroke-width="1" /><path d="M 20 76 C 14 78 12 82 20 90 C 28 82 26 78 20 76 M 34 90 C 32 84 28 82 20 90 C 28 98 32 96 34 90 M 6 90 C 8 84 12 82 20 90 C 12 98 8 96 6 90 M 19.6 90 C 19.6 102 10 100 20 100 C 30 100 20.4 102 20.4 90" fill="rgb(0,0,0)" stroke="rgb(0,0,0)" stroke-width="1" /><path d="M 180 196 C 174 198 172 202 180 210 C 188 202 186 198 180 196 M 194 210 C 192 204 188 202 180 210 C 188 218 192 216 194 210 M 166 210 C 168 204 172 202 180 210 C 172 218 168 216 166 210 M 179.6 210 C 179.6 222 170 220 180 220 C 190 220 180.4 222 180.4 210" fill="rgb(0,0,0)" stroke="rgb(0,0,0)" stroke-width="1" transform="rotate(180,180,210)" /><path d="M 100 222 C 88 226 84 234 100 250 C 116 234 112 226 100 222 M 128 250 C 124 238 116 234 100 250 C 116 266 124 262 128 250 M 72 250 C 76 238 84 234 100 250 C 84 266 76 262 72 250 M 99.2 250 C 99.2 274 80 270 100 270 C 120 270 100.8 274 100.8 250" fill="rgb(0,0,0)" stroke="rgb(0,0,0)" stroke-width="1" transform="rotate(180,100,250)" /><path d="M 15 25 C 15 5 60 15 25 45 C 20 50 15 55 15 65 L 37.5 65 L 37.5 60" fill="none" stroke="rgb(0,0,0)" stroke-width="6" /><path d="M 165 245 C 165 225 210 235 175 265 C 170 270 165 275 165 285 L 187.5 285 L 187.5 280" fill="none" stroke="rgb(0,0,0)" stroke-width="6" transform="rotate(180,175,260)" /></g></svg>