<?xml version="1.0" encoding="utf-8" ?>
<svg baseProfile="full" height="300px" version="1.1" width="200px" xmlns="http://www.w3.org/2000/svg" xmlns:ev="http://www.w3.org/2001/xml-events" xmlns:xlink="http://www.w3.org/1999/xlink"><defs /><g><rect fill="rgb(255,213,153)" height="300px" stroke="rgb(155,0,0)" width="200px" x="0" y="0" /><path d="M 100 26 C 94.0 38 88 46 88 46 C 88 46 94.0 54 100 66 C 106.0 54 112 46 112 46 C 112 46 106.0 38 100 26" fill="rgb(155,0,0)" stroke="rgb(155,0,0)" stroke-width="1" /><path d="M 20 78 C 17.0 84 14 88 14 88 C 14 88 17.0 92 20 98 C 23.0 92 26 88 26 88 C 26 88 23.0 84 20 78" fill="rgb(155,0,0)" stroke="rgb(155,0,0)" stroke-width="1" /><path d="M 180 198 C 177.0 204 174 208 174 208 C 174 208 177.0 212 180 218 C 183.0 212 186 208 186 208 C 186 208 183.0 204 180 198" fill="rgb(155,0,0)" stroke="rgb(155,0,0)" stroke-width="1" transform="rotate(180,180,210)" /><path d="M 100 226 C 94.0 238 88 246 88 246 C 88 246 94.0 254 100 266 C 106.0 254 112 246 112 246 C 112 246 106.0 238 100 226" fill="rgb(155,0,0)" stroke="rgb(155,0,0)" stroke-width="1" transform="rotate(180,100,250)" /><path d="M 15 25 C 15 5 60 15 25 45 C 20 50 15 55 15 65 L 37.5 65 L 37.5 60" fill="none" stroke="rgb(155,0,0)" stroke-width="6" /><path d="M 165 245 C 165 225 210 235 175 265 C 170 270 165 275 165 285 L 187.5 285 L 187.5 280" fill="none" stroke="rgb(155,0,0)" stroke-width="6" transform="rotate(180,175,260)" /></g></svg>