<?xml version="1.0" encoding="utf-8" ?>
<svg baseProfile="full" height="300px" version="1.1" width="200px" xmlns="http://www.w3.org/2000/svg" xmlns:ev="http://www.w3.org/2001/xml-events" xmlns:xlink="http://www.w3.org/1999/xlink"><defs /><g><rect fill="rgb(255,213,153)" height="300px" stroke="rgb(155,0,0)" width="200px" x="0" y="0" /><path d="M 100 34 C 84 10 68 46 100 66 C 132 46 116 10 100 34" fill="rgb(155,0,0)" stroke="rgb(155,0,0)" stroke-width="1" /><path d="M 20 82 C 12 70 4 88 20 98 C 36 88 28 70 20 82" fill="rgb(155,0,0)" stroke="rgb(155,0,0)" stroke-width="1" /><path d="M 180 202 C 172 190 164 208 180 218 C 196 208 188 190 180 202" fill="rgb(155,0,0)" stroke="rgb(155,0,0)" stroke-width="1" transform="rotate(180,180,210)" /><path d="M 100 234 C 84 210 68 246 100 266 C 132 246 116 210 100 234" fill="rgb(155,0,0)" stroke="rgb(155,0,0)" stroke-width="1" transform="rotate(180,100,250)" /><path d="M 15 25 C 15 5 60 15 25 45 C 20 50 15 55 15 65 L 37.5 65 L 37.5 60" fill="none" stroke="rgb(155,0,0)" stroke-width="6" /><path d="M 165 245 C 165 225 210 235 175 265 C 170 270 165 275 165 285 L 187.5 285 L 187.5 280" fill="none" stroke="rgb(155,0,0)" stroke-width="6" transform="rotate(180,175,260)" /></g></svg>