<?xml version="1.0" encoding="utf-8" ?>
<svg baseProfile="full" height="300px" version="1.1" width="200px" xmlns="http://www.w3.org/2000/svg" xmlns:ev="http://www.w3.org/2001/xml-events" xmlns:xlink="http://www.w3.org/1999/xlink"><defs /><g><rect fill="rgb(255,213,153)" height="300px" stroke="rgb(0,0,0)" width="200px" x="0" y="0" /><path d="M 100 22 C 68 50 84 78 100 54 C 116 78 132 50 100 22 M 98.0 54 C 99.2 74 76 70 100 70 C 124 70 100.8 74 102.0 54" fill="rgb(0,0,0)" stroke="rgb(0,0,0)" stroke-width="1" /><path d="M 20 76 C 4 90 12 104 20 92 C 28 104 36 90 20 76 M 19.0 92 C 19.6 102 8 100 20 100 C 32 100 20.4 102 21.0 92" fill="rgb(0,0,0)" stroke="rgb(0,0,0)" stroke-width="1" /><path d="M 180 196 C 164 210 172 224 180 212 C 188 224 196 210 180 196 M 179.0 212 C 179.6 222 168 220 180 220 C 192 220 180.4 222 181.0 212" fill="rgb(0,0,0)" stroke="rgb(0,0,0)" stroke-width="1" transform="rotate(180,180,210)" /><path d="M 100 222 C 68 250 84 278 100 254 C 116 278 132 250 100 222 M 98.0 254 C 99.2 274 76 270 100 270 C 124 270 100.8 274 102.0 254" fill="rgb(0,0,0)" stroke="rgb(0,0,0)" stroke-width="1" transform="rotate(180,100,250)" /><path d="M 15 25 C 15 5 60 15 25 45 C 20 50 15 55 15 65 L 37.5 65 L 37.5 60" fill="none" stroke="rgb(0,0,0)" stroke-width="6" /><path d="M 165 245 C 165 225 210 235 175 265 C 170 270 165 275 165 285 L 187.5 285 L 187.5 280" fill="none" stroke="rgb(0,0,0)" stroke-width="6" transform="rotate(180,175,260)" /></g></svg>