<?xml version="1.0" encoding="utf-8" ?>
<svg baseProfile="full" height="300px" version="1.1" width="200px" xmlns="http://www.w3.org/2000/svg" xmlns:ev="http://www.w3.org/2001/xml-events" xmlns:xlink="http://www.w3.org/1999/xlink"><defs /><g><rect fill="rgb(255,213,153)" height="300px" stroke="rgb(0,0,0)" width="200px" x="0" y="0" /><path d="M 70 22 C 58 26 54 34 70 50 C 86 34 82 26 70 22 M 98 50 C 94 38 86 34 70 50 C 86 66 94 62 98 50 M 42 50 C 46 38 54 34 70 50 C 54 66 46 62 42 50 M 69.2 50 C 69.2 74 50 70 70 70 C 90 70 70.8 74 70.8 50" fill="rgb(0,0,0)" stroke="rgb(0,0,0)" stroke-width="1" /><path d="M 130 22 C 118 26 114 34 130 50 C 146 34 142 26 130 22 M 158 50 C 154 38 146 34 130 50 C 146 66 154 62 158 50 M 102 50 C 106 38 114 34 130 50 C 114 66 106 62 102 50 M 129.2 50 C 129.2 74 110 70 130 70 C 150 70 130.8 74 130.8 50" fill="rgb(0,0,0)" stroke="rgb(0,0,0)" stroke-width="1" /><path d="M 20 76 C 14 78 12 82 20 90 C 28 82 26 78 20 76 M 34 90 C 32 84 28 82 20 90 C 28 98 32 96 34 90 M 6 90 C 8 84 12 82 20 90 C 12 98 8 96 6 90 M 19.6 90 C 19.6 102 10 100 20 100 C 30 100 20.4 102 20.4 90" fill="rgb(0,0,0)" stroke="rgb(0,0,0)" stroke-width="1" /><path d="M 180 196 C 174 198 172 202 180 210 C 188 202 186 198 180 196 M 194 210 C 192 204 188 202 180 210 C 188 218 192 216 194 210 M 166 210 C 168 204 172 202 180 210 C 172 218 168 216 166 210 M 179.6 210 C 179.6 222 170 220 180 220 C 190 220 180.4 222 180.4 210" fill="rgb(0,0,0)" stroke="rgb(0,0,0)" stroke-width="1" transform="rotate(180,180,210)" /><path d="M 70 222 C 58 226 54 234 70 250 C 86 234 82 226 70 222 M 98 250 C 94 238 86 234 70 250 C 86 266 94 262 98 250 M 42 250 C 46 238 54 234 70 250 C 54 266 46 262 42 250 M 69.2 250 C 69.2 274 50 270 70 270 C 90 270 70.8 274 70.8 250" fill="rgb(0,0,0)" stroke="rgb(0,0,0)" stroke-width="1" transform="rotate(180,70,250)" /><path d="M 130 222 C 118 226 114 234 130 250 C 146 234 142 226 130 222 M 158 250 C 154 238 146 234 130 250 C 146 266 154 262 158 250 M 102 250 C 106 238 114 234 130 250 C 114 266 106 262 102 250 M 129.2 250 C 129.2 274 110 270 130 270 C 150 270 130.8 274 130.8 250" fill="rgb(0,0,0)" stroke="rgb(0,0,0)" stroke-width="1" transform="rotate(180,130,250)" /><path d="M 30 65 L 30 20 L 15 45 L 35 45" fill="none" stroke="rgb(0,0,0)" stroke-width="6" /><path d="M 180 285 L 180 240 L 165 265 L 185 265" fill="none" stroke="rgb(0,0,0)" stroke-width="6" transform="rotate(180,175,260)" /></g></svg>