<?xml version="1.0" encoding="utf-8" ?>
<svg baseProfile="full" height="300px" version="1.1" width="200px" xmlns="http://www.w3.org/2000/svg" xmlns:ev="http://www.w3.org/2001/xml-events" xmlns:xlink="http://www.w3.org/1999/xlink"><defs /><g><rect fill="rgb(255,213,153)" height="300px" stroke="rgb(155,0,0)" width="200px" x="0" y="0" /><path d="M 70 26 C 64.0 38 58 46 58 46 C 58 46 64.0 54 70 66 C 76.0 54 82 46 82 46 C 82 46 76.0 38 70 26" fill="rgb(155,0,0)" stroke="rgb(155,0,0)" stroke-width="1" /><path d="M 130 26 C 124.0 38 118 46 118 46 C 118 46 124.0 54 130 66 C 136.0 54 142 46 142 46 C 142 46 136.0 38 130 26" fill="rgb(155,0,0)" stroke="rgb(155,0,0)" stroke-width="1" /><path d="M 100 126 C 94.0 138 88 146 88 146 C 88 146 94.0 154 100 166 C 106.0 154 112 146 112 146 C 112 146 106.0 138 100 126" fill="rgb(155,0,0)" stroke="rgb(155,0,0)" stroke-width="1" /><path d="M 20 78 C 17.0 84 14 88 14 88 C 14 88 17.0 92 20 98 C 23.0 92 26 88 26 88 C 26 88 23.0 84 20 78" fill="rgb(155,0,0)" stroke="rgb(155,0,0)" stroke-width="1" /><path d="M 180 198 C 177.0 204 174 208 174 208 C 174 208 177.0 212 180 218 C 183.0 212 186 208 186 208 C 186 208 183.0 204 180 198" fill="rgb(155,0,0)" stroke="rgb(155,0,0)" stroke-width="1" transform="rotate(180,180,210)" /><path d="M 70 226 C 64.0 238 58 246 58 246 C 58 246 64.0 254 70 266 C 76.0 254 82 246 82 246 C 82 246 76.0 238 70 226" fill="rgb(155,0,0)" stroke="rgb(155,0,0)" stroke-width="1" transform="rotate(180,70,250)" /><path d="M 130 226 C 124.0 238 118 246 118 246 C 118 246 124.0 254 130 266 C 136.0 254 142 246 142 246 C 142 246 136.0 238 130 226" fill="rgb(155,0,0)" stroke="rgb(155,0,0)" stroke-width="1" transform="rotate(180,130,250)" /><path d="M 40 15 L 20 15 L 15 35 C 55 25 35 75 10 50" fill="none" stroke="rgb(155,0,0)" stroke-width="6" /><path d="M 190 235 L 170 235 L 165 255 C 205 245 185 295 160 270" fill="none" stroke="rgb(155,0,0)" stroke-width="6" transform="rotate(180,175,260)" /></g></svg>