<?xml version="1.0" encoding="utf-8" ?>
<svg baseProfile="full" height="300px" version="1.1" width="200px" xmlns="http://www.w3.org/2000/svg" xmlns:ev="http://www.w3.org/2001/xml-events" xmlns:xlink="http://www.w3.org/1999/xlink"><defs /><g><rect fill="rgb(255,213,153)" height="300px" stroke="rgb(155,0,0)" width="200px" x="0" y="0" /><path d="M 70 34 C 54 10 38 46 70 66 C 102 46 86 10 70 34" fill="rgb(155,0,0)" stroke="rgb(155,0,0)" stroke-width="1" /><path d="M 130 34 C 114 10 98 46 130 66 C 162 46 146 10 130 34" fill="rgb(155,0,0)" stroke="rgb(155,0,0)" stroke-width="1" /><path d="M 100 134 C 84 110 68 146 100 166 C 132 146 116 110 100 134" fill="rgb(155,0,0)" stroke="rgb(155,0,0)" stroke-width="1" /><path d="M 20 82 C 12 70 4 88 20 98 C 36 88 28 70 20 82" fill="rgb(155,0,0)" stroke="rgb(155,0,0)" stroke-width="1" /><path d="M 180 202 C 172 190 164 208 180 218 C 196 208 188 190 180 202" fill="rgb(155,0,0)" stroke="rgb(155,0,0)" stroke-width="1" transform="rotate(180,180,210)" /><path d="M 70 234 C 54 210 38 246 70 266 C 102 246 86 210 70 234" fill="rgb(155,0,0)" stroke="rgb(155,0,0)" stroke-width="1" transform="rotate(180,70,250)" /><path d="M 130 234 C 114 210 98 246 130 266 C 162 246 146 210 130 234" fill="rgb(155,0,0)" stroke="rgb(155,0,0)" stroke-width="1" transform="rotate(180,130,250)" /><path d="M 40 15 L 20 15 L 15 35 C 55 25 35 75 10 50" fill="none" stroke="rgb(155,0,0)" stroke-width="6" /><path d="M 190 235 L 170 235 L 165 255 C 205 245 185 295 160 270" fill="none" stroke="rgb(155,0,0)" stroke-width="6" transform="rotate(180,175,260)" /></g></svg>