<?xml version="1.0" encoding="utf-8" ?>
<svg baseProfile="full" height="300px" version="1.1" width="200px" xmlns="http://www.w3.org/2000/svg" xmlns:ev="http://www.w3.org/2001/xml-events" xmlns:xlink="http://www.w3.org/1999/xlink"><defs /><g><rect fill="rgb(255,213,153)" height="300px" stroke="rgb(155,0,0)" width="200px" x="0" y="0" /><path d="M 70 34 C 54 10 38 46 70 66 C 102 46 86 10 70 34" fill="rgb(155,0,0)" stroke="rgb(155,0,0)" stroke-width="1" /><path d="M 130 34 C 114 10 98 46 130 66 C 162 46 146 10 130 34" fill="rgb(155,0,0)" stroke="rgb(155,0,0)" stroke-width="1" /><path d="M 70 134 C 54 110 38 146 70 166 C 102 146 86 110 70 134" fill="rgb(155,0,0)" stroke="rgb(155,0,0)" stroke-width="1" /><path d="M 130 134 C 114 110 98 146 130 166 C 162 146 146 110 130 134" fill="rgb(155,0,0)" stroke="rgb(155,0,0)" stroke-width="1" /><path d="M 20 82 C 12 70 4 88 20 98 C 36 88 28 70 20 82" fill="rgb(155,0,0)" stroke="rgb(155,0,0)" stroke-width="1" /><path d="M 180 202 C 172 190 164 208 180 218 C 196 208 188 190 180 202" fill="rgb(155,0,0)" stroke="rgb(155,0,0)" stroke-width="1" transform="rotate(180,180,210)" /><path d="M 70 234 C 54 210 38 246 70 266 C 102 246 86 210 70 234" fill="rgb(155,0,0)" stroke="rgb(155,0,0)" stroke-width="1" transform="rotate(180,70,250)" /><path d="M 130 234 C 114 210 98 246 130 266 C 162 246 146 210 130 234" fill="rgb(155,0,0)" stroke="rgb(155,0,0)" stroke-width="1" transform="rotate(180,130,250)" /><path d="M 25 15 C 12.75 15 12.75 40 25 40 C 37.25 40 37.25 15 25 15 M 34.25 27.5 C 36.75 70 14.25 65 16 50" fill="none" stroke="rgb(155,0,0)" stroke-width="6" transform="rotate(177.5,25,40)" /><path d="M 175 235 C 162.75 235 162.75 260 175 260 C 187.25 260 187.25 235 175 235 M 184.25 247.5 C 186.75 290 164.25 285 166 270" fill="none" stroke="rgb(155,0,0)" stroke-width="6" transform="rotate(-2.5,175,260)" /></g></svg>