<?xml version="1.0" encoding="utf-8" ?>
<svg baseProfile="full" height="300px" version="1.1" width="200px" xmlns="http://www.w3.org/2000/svg" xmlns:ev="http://www.w3.org/2001/xml-events" xmlns:xlink="http://www.w3.org/1999/xlink"><defs /><g><rect fill="rgb(255,213,153)" height="300px" stroke="rgb(155,0,0)" width="200px" x="0" y="0" /><path d="M 70 26 C 64.0 38 58 46 58 46 C 58 46 64.0 54 70 66 C 76.0 54 82 46 82 46 C 82 46 76.0 38 70 26" fill="rgb(155,0,0)" stroke="rgb(155,0,0)" stroke-width="1" /><path d="M 130 26 C 124.0 38 118 46 118 46 C 118 46 124.0 54 130 66 C 136.0 54 142 46 142 46 C 142 46 136.0 38 130 26" fill="rgb(155,0,0)" stroke="rgb(155,0,0)" stroke-width="1" /><path d="M 70 101 C 64.0 113 58 121 58 121 C 58 121 64.0 129 70 141 C 76.0 129 82 121 82 121 C 82 121 76.0 113 70 101" fill="rgb(155,0,0)" stroke="rgb(155,0,0)" stroke-width="1" /><path d="M 130 101 C 124.0 113 118 121 118 121 C 118 121 124.0 129 130 141 C 136.0 129 142 121 142 121 C 142 121 136.0 113 130 101" fill="rgb(155,0,0)" stroke="rgb(155,0,0)" stroke-width="1" /><path d="M 20 78 C 17.0 84 14 88 14 88 C 14 88 17.0 92 20 98 C 23.0 92 26 88 26 88 C 26 88 23.0 84 20 78" fill="rgb(155,0,0)" stroke="rgb(155,0,0)" stroke-width="1" /><path d="M 180 198 C 177.0 204 174 208 174 208 C 174 208 177.0 212 180 218 C 183.0 212 186 208 186 208 C 186 208 183.0 204 180 198" fill="rgb(155,0,0)" stroke="rgb(155,0,0)" stroke-width="1" transform="rotate(180,180,210)" /><path d="M 100 151 C 94.0 163 88 171 88 171 C 88 171 94.0 179 100 191 C 106.0 179 112 171 112 171 C 112 171 106.0 163 100 151" fill="rgb(155,0,0)" stroke="rgb(155,0,0)" stroke-width="1" transform="rotate(180,100,175)" /><path d="M 70 226 C 64.0 238 58 246 58 246 C 58 246 64.0 254 70 266 C 76.0 254 82 246 82 246 C 82 246 76.0 238 70 226" fill="rgb(155,0,0)" stroke="rgb(155,0,0)" stroke-width="1" transform="rotate(180,70,250)" /><path d="M 130 226 C 124.0 238 118 246 118 246 C 118 246 124.0 254 130 266 C 136.0 254 142 246 142 246 C 142 246 136.0 238 130 226" fill="rgb(155,0,0)" stroke="rgb(155,0,0)" stroke-width="1" transform="rotate(180,130,250)" /><path d="M 15 20 L 15 15 L 35 15 C 29 25 21 55 20 65" fill="none" stroke="rgb(155,0,0)" stroke-width="6" transform="rotate(-2.5,25,40)" /><path d="M 165 240 L 165 235 L 185 235 C 179 245 171 275 170 285" fill="none" stroke="rgb(155,0,0)" stroke-width="6" transform="rotate(177.5,175,260)" /></g></svg>