<?xml version="1.0" encoding="utf-8" ?>
<svg baseProfile="full" height="300px" version="1.1" width="200px" xmlns="http://www.w3.org/2000/svg" xmlns:ev="http://www.w3.org/2001/xml-events" xmlns:xlink="http://www.w3.org/1999/xlink"><defs /><g><rect fill="rgb(255,213,153)" height="300px" stroke="rgb(0,0,0)" width="200px" x="0" y="0" /><path d="M 70 22 C 58 26 54 34 70 50 C 86 34 82 26 70 22 M 98 50 C 94 38 86 34 70 50 C 86 66 94 62 98 50 M 42 50 C 46 38 54 34 70 50 C 54 66 46 62 42 50 M 69.2 50 C 69.2 74 50 70 70 70 C 90 70 70.8 74 70.8 50" fill="rgb(0,0,0)" stroke="rgb(0,0,0)" stroke-width="1" /><path d="M 130 22 C 118 26 114 34 130 50 C 146 34 142 26 130 22 M 158 50 C 154 38 146 34 130 50 C 146 66 154 62 158 50 M 102 50 C 106 38 114 34 130 50 C 114 66 106 62 102 50 M 129.2 50 C 129.2 74 110 70 130 70 C 150 70 130.8 74 130.8 50" fill="rgb(0,0,0)" stroke="rgb(0,0,0)" stroke-width="1" /><path d="M 70 97 C 58 101 54 109 70 125 C 86 109 82 101 70 97 M 98 125 C 94 113 86 109 70 125 C 86 141 94 137 98 125 M 42 125 C 46 113 54 109 70 125 C 54 141 46 137 42 125 M 69.2 125 C 69.2 149 50 145 70 145 C 90 145 70.8 149 70.8 125" fill="rgb(0,0,0)" stroke="rgb(0,0,0)" stroke-width="1" /><path d="M 130 97 C 118 101 114 109 130 125 C 146 109 142 101 130 97 M 158 125 C 154 113 146 109 130 125 C 146 141 154 137 158 125 M 102 125 C 106 113 114 109 130 125 C 114 141 106 137 102 125 M 129.2 125 C 129.2 149 110 145 130 145 C 150 145 130.8 149 130.8 125" fill="rgb(0,0,0)" stroke="rgb(0,0,0)" stroke-width="1" /><path d="M 20 76 C 14 78 12 82 20 90 C 28 82 26 78 20 76 M 34 90 C 32 84 28 82 20 90 C 28 98 32 96 34 90 M 6 90 C 8 84 12 82 20 90 C 12 98 8 96 6 90 M 19.6 90 C 19.6 102 10 100 20 100 C 30 100 20.4 102 20.4 90" fill="rgb(0,0,0)" stroke="rgb(0,0,0)" stroke-width="1" /><path d="M 180 196 C 174 198 172 202 180 210 C 188 202 186 198 180 196 M 194 210 C 192 204 188 202 180 210 C 188 218 192 216 194 210 M 166 210 C 168 204 172 202 180 210 C 172 218 168 216 166 210 M 179.6 210 C 179.6 222 170 220 180 220 C 190 220 180.4 222 180.4 210" fill="rgb(0,0,0)" stroke="rgb(0,0,0)" stroke-width="1" transform="rotate(180,180,210)" /><path d="M 70 147 C 58 151 54 159 70 175 C 86 159 82 151 70 147 M 98 175 C 94 163 86 159 70 175 C 86 191 94 187 98 175 M 42 175 C 46 163 54 159 70 175 C 54 191 46 187 42 175 M 69.2 175 C 69.2 199 50 195 70 195 C 90 195 70.8 199 70.8 175" fill="rgb(0,0,0)" stroke="rgb(0,0,0)" stroke-width="1" transform="rotate(180,70,175)" /><path d="M 130 147 C 118 151 114 159 130 175 C 146 159 142 151 130 147 M 158 175 C 154 163 146 159 130 175 C 146 191 154 187 158 175 M 102 175 C 106 163 114 159 130 175 C 114 191 106 187 102 175 M 129.2 175 C 129.2 199 110 195 130 195 C 150 195 130.8 199 130.8 175" fill="rgb(0,0,0)" stroke="rgb(0,0,0)" stroke-width="1" transform="rotate(180,130,175)" /><path d="M 70 222 C 58 226 54 234 70 250 C 86 234 82 226 70 222 M 98 250 C 94 238 86 234 70 250 C 86 266 94 262 98 250 M 42 250 C 46 238 54 234 70 250 C 54 266 46 262 42 250 M 69.2 250 C 69.2 274 50 270 70 270 C 90 270 70.8 274 70.8 250" fill="rgb(0,0,0)" stroke="rgb(0,0,0)" stroke-width="1" transform="rotate(180,70,250)" /><path d="M 130 222 C 118 226 114 234 130 250 C 146 234 142 226 130 222 M 158 250 C 154 238 146 234 130 250 C 146 266 154 262 158 250 M 102 250 C 106 238 114 234 130 250 C 114 266 106 262 102 250 M 129.2 250 C 129.2 274 110 270 130 270 C 150 270 130.8 274 130.8 250" fill="rgb(0,0,0)" stroke="rgb(0,0,0)" stroke-width="1" transform="rotate(180,130,250)" /><path d="M 25 15 C 10 15 10 35 25 35 C 40 35 40 15 25 15 M 25 35 C 5 35 5 60 25 60 C 45 60 45 35 25 35" fill="none" stroke="rgb(0,0,0)" stroke-width="6" transform="rotate(-2.5,25,40)" /><path d="M 175 235 C 160 235 160 255 175 255 C 190 255 190 235 175 235 M 175 255 C 155 255 155 280 175 280 C 195 280 195 255 175 255" fill="none" stroke="rgb(0,0,0)" stroke-width="6" transform="rotate(177.5,175,260)" /></g></svg>