<?xml version="1.0" encoding="utf-8" ?>
<svg baseProfile="full" height="300px" version="1.1" width="200px" xmlns="http://www.w3.org/2000/svg" xmlns:ev="http://www.w3.org/2001/xml-events" xmlns:xlink="http://www.w3.org/1999/xlink"><defs /><g><rect fill="rgb(255,213,153)" height="300px" stroke="rgb(0,0,0)" width="200px" x="0" y="0" /><path d="M 70 22 C 38 50 54 78 70 54 C 86 78 102 50 70 22 M 68.0 54 C 69.2 74 46 70 70 70 C 94 70 70.8 74 72.0 54" fill="rgb(0,0,0)" stroke="rgb(0,0,0)" stroke-width="1" /><path d="M 130 22 C 98 50 114 78 130 54 C 146 78 162 50 130 22 M 128.0 54 C 129.2 74 106 70 130 70 C 154 70 130.8 74 132.0 54" fill="rgb(0,0,0)" stroke="rgb(0,0,0)" stroke-width="1" /><path d="M 70 97 C 38 125 54 153 70 129 C 86 153 102 125 70 97 M 68.0 129 C 69.2 149 46 145 70 145 C 94 145 70.8 149 72.0 129" fill="rgb(0,0,0)" stroke="rgb(0,0,0)" stroke-width="1" /><path d="M 130 97 C 98 125 114 153 130 129 C 146 153 162 125 130 97 M 128.0 129 C 129.2 149 106 145 130 145 C 154 145 130.8 149 132.0 129" fill="rgb(0,0,0)" stroke="rgb(0,0,0)" stroke-width="1" /><path d="M 20 76 C 4 90 12 104 20 92 C 28 104 36 90 20 76 M 19.0 92 C 19.6 102 8 100 20 100 C 32 100 20.4 102 21.0 92" fill="rgb(0,0,0)" stroke="rgb(0,0,0)" stroke-width="1" /><path d="M 180 196 C 164 210 172 224 180 212 C 188 224 196 210 180 196 M 179.0 212 C 179.6 222 168 220 180 220 C 192 220 180.4 222 181.0 212" fill="rgb(0,0,0)" stroke="rgb(0,0,0)" stroke-width="1" transform="rotate(180,180,210)" /><path d="M 70 147 C 38 175 54 203 70 179 C 86 203 102 175 70 147 M 68.0 179 C 69.2 199 46 195 70 195 C 94 195 70.8 199 72.0 179" fill="rgb(0,0,0)" stroke="rgb(0,0,0)" stroke-width="1" transform="rotate(180,70,175)" /><path d="M 130 147 C 98 175 114 203 130 179 C 146 203 162 175 130 147 M 128.0 179 C 129.2 199 106 195 130 195 C 154 195 130.8 199 132.0 179" fill="rgb(0,0,0)" stroke="rgb(0,0,0)" stroke-width="1" transform="rotate(180,130,175)" /><path d="M 70 222 C 38 250 54 278 70 254 C 86 278 102 250 70 222 M 68.0 254 C 69.2 274 46 270 70 270 C 94 270 70.8 274 72.0 254" fill="rgb(0,0,0)" stroke="rgb(0,0,0)" stroke-width="1" transform="rotate(180,70,250)" /><path d="M 130 222 C 98 250 114 278 130 254 C 146 278 162 250 130 222 M 128.0 254 C 129.2 274 106 270 130 270 C 154 270 130.8 274 132.0 254" fill="rgb(0,0,0)" stroke="rgb(0,0,0)" stroke-width="1" transform="rotate(180,130,250)" /><path d="M 25 15 C 10 15 10 35 25 35 C 40 35 40 15 25 15 M 25 35 C 5 35 5 60 25 60 C 45 60 45 35 25 35" fill="none" stroke="rgb(0,0,0)" stroke-width="6" transform="rotate(-2.5,25,40)" /><path d="M 175 235 C 160 235 160 255 175 255 C 190 255 190 235 175 235 M 175 255 C 155 255 155 280 175 280 C 195 280 195 255 175 255" fill="none" stroke="rgb(0,0,0)" stroke-width="6" transform="rotate(177.5,175,260)" /></g></svg>