<?xml version="1.0" encoding="utf-8" ?>
<svg baseProfile="full" height="300px" version="1.1" width="200px" xmlns="http://www.w3.org/2000/svg" xmlns:ev="http://www.w3.org/2001/xml-events" xmlns:xlink="http://www.w3.org/1999/xlink"><defs /><g><rect fill="rgb(255,213,153)" height="300px" stroke="rgb(0,0,0)" width="200px" x="0" y="0" /><path d="M 70 22 C 58 26 54 34 70 50 C 86 34 82 26 70 22 M 98 50 C 94 38 86 34 70 50 C 86 66 94 62 98 50 M 42 50 C 46 38 54 34 70 50 C 54 66 46 62 42 50 M 69.2 50 C 69.2 74 50 70 70 70 C 90 70 70.8 74 70.8 50" fill="black" stroke="rgb(0,0,0)" stroke-width="1" /><path d="M 130 22 C 118 26 114 34 130 50 C 146 34 142 26 130 22 M 158 50 C 154 38 146 34 130 50 C 146 66 154 62 158 50 M 102 50 C 106 38 114 34 130 50 C 114 66 106 62 102 50 M 129.2 50 C 129.2 74 110 70 130 70 C 150 70 130.8 74 130.8 50" fill="black" stroke="rgb(0,0,0)" stroke-width="1" /><path d="M 100 122 C 88 126 84 134 100 150 C 116 134 112 126 100 122 M 128 150 C 124 138 116 134 100 150 C 116 166 124 162 128 150 M 72 150 C 76 138 84 134 100 150 C 84 166 76 162 72 150 M 99.2 150 C 99.2 174 80 170 100 170 C 120 170 100.8 174 100.8 150" fill="black" stroke="rgb(0,0,0)" stroke-width="1" /><path d="M 70 84.5 C 58 88.5 54 96.5 70 112.5 C 86 96.5 82 88.5 70 84.5 M 98 112.5 C 94 100.5 86 96.5 70 112.5 C 86 128.5 94 124.5 98 112.5 M 42 112.5 C 46 100.5 54 96.5 70 112.5 C 54 128.5 46 124.5 42 112.5 M 69.2 112.5 C 69.2 136.5 50 132.5 70 132.5 C 90 132.5 70.8 136.5 70.8 112.5" fill="black" stroke="rgb(0,0,0)" stroke-width="1" /><path d="M 130 84.5 C 118 88.5 114 96.5 130 112.5 C 146 96.5 142 88.5 130 84.5 M 158 112.5 C 154 100.5 146 96.5 130 112.5 C 146 128.5 154 124.5 158 112.5 M 102 112.5 C 106 100.5 114 96.5 130 112.5 C 114 128.5 106 124.5 102 112.5 M 129.2 112.5 C 129.2 136.5 110 132.5 130 132.5 C 150 132.5 130.8 136.5 130.8 112.5" fill="black" stroke="rgb(0,0,0)" stroke-width="1" /><path d="M 20 76 C 14 78 12 82 20 90 C 28 82 26 78 20 76 M 34 90 C 32 84 28 82 20 90 C 28 98 32 96 34 90 M 6 90 C 8 84 12 82 20 90 C 12 98 8 96 6 90 M 19.6 90 C 19.6 102 10 100 20 100 C 30 100 20.4 102 20.4 90" fill="black" stroke="rgb(0,0,0)" stroke-width="1" /><path d="M 180 196 C 174 198 172 202 180 210 C 188 202 186 198 180 196 M 194 210 C 192 204 188 202 180 210 C 188 218 192 216 194 210 M 166 210 C 168 204 172 202 180 210 C 172 218 168 216 166 210 M 179.6 210 C 179.6 222 170 220 180 220 C 190 220 180.4 222 180.4 210" fill="black" stroke="rgb(0,0,0)" stroke-width="1" transform="rotate(180,180,210)" /><path d="M 70 169.5 C 58 173.5 54 181.5 70 197.5 C 86 181.5 82 173.5 70 169.5 M 98 197.5 C 94 185.5 86 181.5 70 197.5 C 86 213.5 94 209.5 98 197.5 M 42 197.5 C 46 185.5 54 181.5 70 197.5 C 54 213.5 46 209.5 42 197.5 M 69.2 197.5 C 69.2 221.5 50 217.5 70 217.5 C 90 217.5 70.8 221.5 70.8 197.5" fill="black" stroke="rgb(0,0,0)" stroke-width="1" transform="rotate(180,70,197.5)" /><path d="M 130 169.5 C 118 173.5 114 181.5 130 197.5 C 146 181.5 142 173.5 130 169.5 M 158 197.5 C 154 185.5 146 181.5 130 197.5 C 146 213.5 154 209.5 158 197.5 M 102 197.5 C 106 185.5 114 181.5 130 197.5 C 114 213.5 106 209.5 102 197.5 M 129.2 197.5 C 129.2 221.5 110 217.5 130 217.5 C 150 217.5 130.8 221.5 130.8 197.5" fill="black" stroke="rgb(0,0,0)" stroke-width="1" transform="rotate(180,130,197.5)" /><path d="M 70 222 C 58 226 54 234 70 250 C 86 234 82 226 70 222 M 98 250 C 94 238 86 234 70 250 C 86 266 94 262 98 250 M 42 250 C 46 238 54 234 70 250 C 54 266 46 262 42 250 M 69.2 250 C 69.2 274 50 270 70 270 C 90 270 70.8 274 70.8 250" fill="black" stroke="rgb(0,0,0)" stroke-width="1" transform="rotate(180,70,250)" /><path d="M 130 222 C 118 226 114 234 130 250 C 146 234 142 226 130 222 M 158 250 C 154 238 146 234 130 250 C 146 266 154 262 158 250 M 102 250 C 106 238 114 234 130 250 C 114 266 106 262 102 250 M 129.2 250 C 129.2 274 110 270 130 270 C 150 270 130.8 274 130.8 250" fill="black" stroke="rgb(0,0,0)" stroke-width="1" transform="rotate(180,130,250)" /><path d="M 25 15 C 12.75 15 12.75 40 25 40 C 37.25 40 37.25 15 25 15 M 34.25 27.5 C 36.75 70 14.25 65 16 50" fill="none" stroke="black" stroke-width="6" transform="rotate(-2.5,25,40)" /><path d="M 175 235 C 162.75 235 162.75 260 175 260 C 187.25 260 187.25 235 175 235 M 184.25 247.5 C 186.75 290 164.25 285 166 270" fill="none" stroke="black" stroke-width="6" transform="rotate(177.5,175,260)" /></g></svg>